<svg xmlns="http://www.w3.org/2000/svg" viewBox="0 0 400 300">
  <path d="M241.63,162.86c-.55,1.61-1.13,3.14-1.74,4.61-1.5,3.47-3.27,6.67-5.32,9.61-2.79,4.01-5.08,6.78-6.84,8.32-2.73,2.53-5.66,3.83-8.8,3.89-2.25,0-4.96-.64-8.13-1.95-3.17-1.3-6.08-1.95-8.75-1.95s-5.79.64-9,1.95c-3.21,1.3-5.8,1.99-7.77,2.05-3.01.13-6-1.2-9-4-1.91-1.67-4.3-4.55-7.16-8.61-3.07-4.34-5.59-9.38-7.57-15.13-2.12-6.2-3.18-12.21-3.18-18.02,0-6.66,1.43-12.41,4.3-17.22,2.25-3.87,5.25-6.92,9-9.16,3.75-2.24,7.8-3.38,12.17-3.45,2.39,0,5.52.74,9.41,2.2,3.88,1.47,6.37,2.21,7.47,2.21.82,0,3.58-.87,8.28-2.6,4.44-1.61,8.19-2.27,11.26-2.01,8.31.68,14.56,3.97,18.71,9.91-7.44,4.53-11.11,10.88-11.04,19.02.07,6.34,2.35,11.62,6.85,15.81,2.04,1.94,4.32,3.44,6.85,4.51ZM220.71,90c.07.66.1,1.33.1,1.99,0,4.97-1.8,9.61-5.4,13.91-4.35,5.11-9.6,8.06-15.3,7.59-.07-.6-.11-1.22-.11-1.88,0-4.77,2.06-9.88,5.73-14.06,1.83-2.11,4.16-3.87,6.98-5.28,2.82-1.38,5.49-2.15,8-2.28Z"></path>
</svg>
