<svg xmlns="http://www.w3.org/2000/svg" viewBox="0 0 400 300">
  <path d="M265.04,115.04c-8.19,0-15.72,2.81-21.68,7.53-5.96-4.72-13.49-7.53-21.68-7.53s-15.72,2.81-21.68,7.53c-5.96-4.72-13.49-7.53-21.68-7.53s-15.72,2.81-21.68,7.53c-5.96-4.72-13.49-7.53-21.68-7.53-19.31,0-34.96,15.65-34.96,34.96s15.65,34.96,34.96,34.96c8.19,0,15.72-2.81,21.68-7.53,5.96,4.71,13.49,7.53,21.68,7.53s15.72-2.81,21.68-7.53c5.96,4.71,13.49,7.53,21.68,7.53s15.72-2.81,21.68-7.53c5.96,4.72,13.49,7.53,21.68,7.53,19.31,0,34.96-15.65,34.96-34.96s-15.65-34.96-34.96-34.96h0ZM150.92,171.73c-4.45,3.25-10.03,5.24-15.96,5.24-14.9,0-26.96-12.05-26.96-26.96s12.05-26.96,26.96-26.96c5.94,0,11.49,1.98,15.96,5.24-4.75,5.96-7.57,13.51-7.57,21.73s2.86,15.77,7.57,21.73h0ZM156.64,166.02c-3.32-4.48-5.27-10.01-5.27-16.01s1.95-11.53,5.27-16.01c3.32,4.48,5.28,10,5.28,16.01-.01,6-1.97,11.53-5.28,16.01h0ZM194.28,171.73c-4.47,3.29-10,5.22-15.98,5.22s-11.47-1.93-15.94-5.22c4.71-5.95,7.57-13.54,7.57-21.73s-2.82-15.75-7.57-21.73c4.47-3.29,9.96-5.22,15.94-5.22s11.51,1.93,15.98,5.22c-4.75,5.96-7.57,13.51-7.57,21.73.01,8.19,2.86,15.77,7.57,21.73h0ZM200,166.02c-3.32-4.48-5.27-10.01-5.27-16.01s1.95-11.53,5.27-16.01c3.32,4.48,5.28,10,5.28,16.01-.01,6-1.97,11.53-5.28,16.01h0ZM237.64,171.73c-4.47,3.29-10,5.22-15.98,5.22s-11.47-1.93-15.94-5.22c4.71-5.95,7.57-13.54,7.57-21.73s-2.82-15.75-7.57-21.73c4.47-3.29,9.96-5.22,15.94-5.22s11.51,1.93,15.98,5.22c-4.75,5.96-7.57,13.51-7.57,21.73.01,8.19,2.86,15.77,7.57,21.73h0ZM243.36,166.02c-3.32-4.48-5.28-10.01-5.28-16.01s1.95-11.53,5.28-16.01c3.32,4.48,5.27,10,5.27,16.01,0,6-1.96,11.53-5.27,16.01h0ZM265.04,176.96c-5.94,0-11.51-1.98-15.96-5.24,4.71-5.95,7.57-13.54,7.57-21.73s-2.82-15.75-7.57-21.73c4.46-3.25,10.03-5.24,15.96-5.24,14.9,0,26.96,12.05,26.96,26.96-.01,14.91-12.06,26.96-26.96,26.96h0Z"></path>
</svg>
