<svg xmlns="http://www.w3.org/2000/svg" viewBox="0 0 400 300">
  <path d="M158.39,156.13c-2.55,0-3.84,2.15-3.84,6.52-.02.52-.02,1.05.07,1.58.34,4.94,1.98,7.64,4.69,7.64,2.52,0,4.03-2.63,4.03-6.98,0-5.18-2.07-8.76-4.95-8.76ZM158.39,156.13c-2.55,0-3.84,2.15-3.84,6.52-.02.52-.02,1.05.07,1.58.34,4.94,1.98,7.64,4.69,7.64,2.52,0,4.03-2.63,4.03-6.98,0-5.18-2.07-8.76-4.95-8.76ZM158.39,156.13c-2.55,0-3.84,2.15-3.84,6.52-.02.52-.02,1.05.07,1.58.34,4.94,1.98,7.64,4.69,7.64,2.52,0,4.03-2.63,4.03-6.98,0-5.18-2.07-8.76-4.95-8.76ZM158.39,156.13c-2.55,0-3.84,2.15-3.84,6.52-.02.52-.02,1.05.07,1.58.34,4.94,1.98,7.64,4.69,7.64,2.52,0,4.03-2.63,4.03-6.98,0-5.18-2.07-8.76-4.95-8.76ZM158.39,156.13c-2.55,0-3.84,2.15-3.84,6.52-.02.52-.02,1.05.07,1.58.34,4.94,1.98,7.64,4.69,7.64,2.52,0,4.03-2.63,4.03-6.98,0-5.18-2.07-8.76-4.95-8.76ZM202.86,156.13c-2.52,0-3.81,2.15-3.81,6.52,0,.52,0,1.05.07,1.58.36,4.94,1.98,7.64,4.64,7.64,2.51,0,4.01-2.63,4.01-6.98,0-5.18-2.07-8.76-4.91-8.76ZM202.86,156.13c-2.52,0-3.81,2.15-3.81,6.52,0,.52,0,1.05.07,1.58.36,4.94,1.98,7.64,4.64,7.64,2.51,0,4.01-2.63,4.01-6.98,0-5.18-2.07-8.76-4.91-8.76ZM158.39,156.13c-2.55,0-3.84,2.15-3.84,6.52-.02.52-.02,1.05.07,1.58.34,4.94,1.98,7.64,4.69,7.64,2.52,0,4.03-2.63,4.03-6.98,0-5.18-2.07-8.76-4.95-8.76ZM158.39,156.13c-2.55,0-3.84,2.15-3.84,6.52-.02.52-.02,1.05.07,1.58.34,4.94,1.98,7.64,4.69,7.64,2.52,0,4.03-2.63,4.03-6.98,0-5.18-2.07-8.76-4.95-8.76ZM202.86,156.13c-2.52,0-3.81,2.15-3.81,6.52,0,.52,0,1.05.07,1.58.36,4.94,1.98,7.64,4.64,7.64,2.51,0,4.01-2.63,4.01-6.98,0-5.18-2.07-8.76-4.91-8.76ZM220.68,127.6c-1.9,0-2.88,1.51-3.19,4.95,2.89-.07,3.78-.14,6.66-.44-.38-3.06-1.53-4.51-3.47-4.51ZM220.68,127.6c-1.9,0-2.88,1.51-3.19,4.95,2.89-.07,3.78-.14,6.66-.44-.38-3.06-1.53-4.51-3.47-4.51ZM202.86,156.13c-2.52,0-3.81,2.15-3.81,6.52,0,.52,0,1.05.07,1.58.36,4.94,1.98,7.64,4.64,7.64,2.51,0,4.01-2.63,4.01-6.98,0-5.18-2.07-8.76-4.91-8.76ZM158.39,156.13c-2.55,0-3.84,2.15-3.84,6.52-.02.52-.02,1.05.07,1.58.34,4.94,1.98,7.64,4.69,7.64,2.52,0,4.03-2.63,4.03-6.98,0-5.18-2.07-8.76-4.95-8.76ZM158.39,156.13c-2.55,0-3.84,2.15-3.84,6.52-.02.52-.02,1.05.07,1.58.34,4.94,1.98,7.64,4.69,7.64,2.52,0,4.03-2.63,4.03-6.98,0-5.18-2.07-8.76-4.95-8.76ZM202.86,156.13c-2.52,0-3.81,2.15-3.81,6.52,0,.52,0,1.05.07,1.58.36,4.94,1.98,7.64,4.64,7.64,2.51,0,4.01-2.63,4.01-6.98,0-5.18-2.07-8.76-4.91-8.76ZM220.68,127.6c-1.9,0-2.88,1.51-3.19,4.95,2.89-.07,3.78-.14,6.66-.44-.38-3.06-1.53-4.51-3.47-4.51ZM220.68,127.6c-1.9,0-2.88,1.51-3.19,4.95,2.89-.07,3.78-.14,6.66-.44-.38-3.06-1.53-4.51-3.47-4.51ZM202.86,156.13c-2.52,0-3.81,2.15-3.81,6.52,0,.52,0,1.05.07,1.58.36,4.94,1.98,7.64,4.64,7.64,2.51,0,4.01-2.63,4.01-6.98,0-5.18-2.07-8.76-4.91-8.76ZM158.39,156.13c-2.55,0-3.84,2.15-3.84,6.52-.02.52-.02,1.05.07,1.58.34,4.94,1.98,7.64,4.69,7.64,2.52,0,4.03-2.63,4.03-6.98,0-5.18-2.07-8.76-4.95-8.76ZM158.39,156.13c-2.55,0-3.84,2.15-3.84,6.52-.02.52-.02,1.05.07,1.58.34,4.94,1.98,7.64,4.69,7.64,2.52,0,4.03-2.63,4.03-6.98,0-5.18-2.07-8.76-4.95-8.76ZM202.86,156.13c-2.52,0-3.81,2.15-3.81,6.52,0,.52,0,1.05.07,1.58.36,4.94,1.98,7.64,4.64,7.64,2.51,0,4.01-2.63,4.01-6.98,0-5.18-2.07-8.76-4.91-8.76ZM220.68,127.6c-1.9,0-2.88,1.51-3.19,4.95,2.89-.07,3.78-.14,6.66-.44-.38-3.06-1.53-4.51-3.47-4.51ZM220.68,127.6c-1.9,0-2.88,1.51-3.19,4.95,2.89-.07,3.78-.14,6.66-.44-.38-3.06-1.53-4.51-3.47-4.51ZM202.86,156.13c-2.52,0-3.81,2.15-3.81,6.52,0,.52,0,1.05.07,1.58.36,4.94,1.98,7.64,4.64,7.64,2.51,0,4.01-2.63,4.01-6.98,0-5.18-2.07-8.76-4.91-8.76ZM158.39,156.13c-2.55,0-3.84,2.15-3.84,6.52-.02.52-.02,1.05.07,1.58.34,4.94,1.98,7.64,4.69,7.64,2.52,0,4.03-2.63,4.03-6.98,0-5.18-2.07-8.76-4.95-8.76ZM100.06,100.04v99.92h199.88v-99.92H100.06ZM254.13,146.54c1.31,0,2.36,1.08,2.36,2.32,0,1.32-1.03,2.38-2.36,2.38-1.31-.01-2.3-1.01-2.3-2.38,0-1.27,1.02-2.32,2.3-2.32ZM128.12,172.67l-2.69.04-8.51-.07-5.75.03.09-.93c2.56-.05,3.22-.76,3.22-3.39v-16.41c0-2.62-.66-3.32-3.22-3.39l-.1-.85,5.36.06,8.49-.1,2.23.04.13,5.08-1.4.11c-.24-3.18-.84-3.53-5.81-3.53h-.77l-.35.03v9.46c.66,0,1.19.04,1.51.04.56.03,1.08.06,1.61.06,2.74,0,3.37-.59,3.4-3.19h1.19c-.11,2.08-.11,3.16-.11,4.21,0,.84,0,2.03.04,3.6h-1.12c-.14-2.51-.7-3-3.33-3.03l-1.89-.04-1.33.07v7.32c0,2.98.18,3.11,3.12,3.11,3.89,0,5.05-.88,5.39-4.21l1.4.07-.8,5.81ZM140.71,173.05c-4.61,0-7.57-3.61-7.57-9.05s3.12-9.2,8.16-9.2c1.33,0,2.66.24,4.73.81l.07,4.13-1.57.11c-.59-3.09-1.2-3.82-3.23-3.82-2.61,0-3.97,2.28-3.97,6.79,0,5.27,1.63,8.24,4.61,8.24,1.54,0,2.77-.67,4.14-2.12l.52,1.23c-2,2.06-3.58,2.88-5.89,2.88ZM158.81,173.05c-4.98,0-8.3-3.36-8.48-8.45v-.53c0-5.9,3.18-9.27,8.58-9.27,5.01,0,8.58,3.72,8.58,9.14s-3.46,9.11-8.68,9.11ZM187.26,172.53c-.99,0-2.45.07-4.31.14l.06-.83c1.8-.28,2.01-.63,2.01-3.74l.04-2.15v-3.13c0-4.4-.81-5.81-3.02-5.81-1.37,0-2.52.7-3.22,1.97-.28.53-.53,1.36-.53,1.71v7.4c.03,3.11.21,3.46,2.06,3.74l.11.84c-1.96-.06-3.43-.14-4.41-.14s-2.52.07-4.49.14l.06-.85c2.28,0,2.63-.44,2.63-3.73v-8.06c0-3.19-.35-3.65-2.63-3.68l-.07-.81c3.05-.17,3.76-.28,6.41-.84l.18,3.1c1.99-2.19,3.53-3,5.62-3,3.38,0,5.3,2.2,5.3,6.11v7.19c-.03.28-.03.56-.03.84,0,2.23.59,2.9,2.74,2.9l.07.83c-2.03-.05-3.57-.14-4.58-.14ZM191.29,124.97c-.09-2.99-.72-3.4-5.27-3.4h-.97v17.14c0,2.36.6,2.99,2.93,3.06l.06.82c-2.21-.03-3.88-.03-4.94-.03-1.12,0-2.85,0-5.12.03l.05-.82c2.34-.06,2.93-.69,2.93-3.06v-17.14h-1.13c-4.67,0-5.31.41-5.37,3.4l-1.12-.06.11-4.89c4.26.03,7.44.07,9.59.07,2.01,0,5.12-.03,9.26-.07l.12,4.89-1.13.06ZM203.25,173.05c-4.94,0-8.3-3.36-8.48-8.45v-.53c0-5.9,3.19-9.27,8.59-9.27,5.07,0,8.63,3.72,8.63,9.14s-3.46,9.11-8.74,9.11ZM208.3,142.46c-.89,0-2.18.07-3.92.13l.07-.75c1.67-.25,1.83-.56,1.86-3.38v-4.74c0-3.97-.69-5.29-2.77-5.29-1.11,0-2.31.72-2.81,1.83-.19.38-.32.79-.44,1.2-.03.16-.03.29-.03.35v6.66c0,2.81.19,3.12,1.85,3.38l.07.75c-1.77-.06-3.07-.13-3.95-.13s-2.3.07-4.1.13l.06-.78c2.11,0,2.39-.41,2.43-3.38v-14.28c-.04-2.97-.32-3.38-2.43-3.38l-.06-.75c2.87-.16,3.53-.25,6.12-.72v9.72c1.67-1.8,3.03-2.53,4.89-2.53,3.09,0,4.8,1.9,4.8,5.49v6.47c.03,2.97.31,3.38,2.42,3.38l.06.75c-1.81-.06-3.21-.13-4.12-.13ZM213.8,134.99c0-5.08,3.05-8.52,7.47-8.52,2.36,0,4.08.88,5.24,2.75.79,1.33,1,2.24,1.04,4.51h-9.97c.13,4.74,1.86,7.45,4.74,7.45,1.7,0,3.14-.79,4.7-2.59l.47.89c-1.97,2.43-3.89,3.44-6.36,3.44-4.38,0-7.33-3.22-7.33-7.93ZM242.02,172.53c-.95,0-2.39.07-4.31.14l.07-.83c1.85-.28,2.03-.63,2.06-3.74v-5.28c0-4.33-.77-5.81-2.94-5.81-1.3,0-2.63.79-3.18,1.97-.18.42-.35.84-.46,1.33-.03.17-.07.32-.07.39v7.4c0,3.11.21,3.46,2.05,3.74l.09.84c-1.86-.06-3.23-.14-4.14-.14s-2.28.07-4.09.14l.07-.84c1.85-.28,2.03-.63,2.06-3.74v-5.27c0-4.33-.77-5.81-2.94-5.81-1.33,0-2.52.73-3.18,1.97-.28.56-.51,1.36-.51,1.71v7.4c.04,3.11.2,3.46,2.05,3.74l.07.84c-1.92-.06-3.34-.14-4.31-.14s-2.52.07-4.55.14l.05-.86c2.34,0,2.69-.44,2.69-3.73v-8.06c0-3.19-.35-3.65-2.69-3.68l-.07-.81c3.11-.17,3.82-.28,6.46-.84l.16,3.1c1.98-2.16,3.51-3,5.58-3,2.38,0,3.78.98,4.77,3.27,2.14-2.38,3.71-3.27,5.84-3.27,3.3,0,5.15,2.25,5.15,6.11v7.19c0,.28-.03.56-.03.84,0,2.23.63,2.9,2.72,2.9l.08.83c-2.03-.05-3.58-.14-4.55-.14ZM254.27,172.52c-1.05,0-2.58.07-4.69.14l.07-.84c2.31,0,2.64-.44,2.64-3.73l.03-2.15v-3.67l-.03-2.24c0-3.19-.33-3.65-2.64-3.68l-.07-.81c3.16-.22,3.89-.32,6.72-.84v11.24l.03,2.15c0,3.29.33,3.73,2.7,3.73l.07.84c-2.16-.06-3.74-.14-4.83-.14ZM268.08,173.07c-1.3-.02-2.51-.3-4.75-1.04l-.14-3.57,1.77-.07c.81,2.7,1.34,3.23,3.2,3.23,1.61,0,2.66-.84,2.66-2.1s-.73-2.06-2.94-3.54c-1.12-.77-1.89-1.31-2.3-1.61-.92-.7-1.59-1.55-1.93-2.49-.21-.53-.32-1.15-.32-1.89,0-3.12,2.16-5.19,5.46-5.19,1.22,0,1.92.1,4.7.77l.07,3.49-1.78.07c-.4-2.29-1.1-3.09-2.75-3.09s-2.7.91-2.7,2.15.56,1.94,2.38,3.11c1.64,1.08,2.9,2.05,3.75,2.83.98.94,1.54,2.14,1.54,3.46,0,3.08-2.59,5.48-5.92,5.48ZM288.73,171.94c-1.19.67-2.83,1.05-4.51,1.05-1.55,0-2.98-.87-3.58-2.17-.53-1.09-.7-2.17-.7-4.49v-8.9h-2.24v-1.61h.01c2.75-.21,3.81-1.41,4.59-5.04h1.57v4.72h4.41l-.49,1.92h-3.92v8.56c0,4.25.56,5.26,2.94,5.26.56,0,1.08-.07,1.92-.31v1.01ZM220.68,127.6c-1.9,0-2.88,1.51-3.19,4.95,2.89-.07,3.78-.14,6.66-.44-.38-3.06-1.53-4.51-3.47-4.51ZM202.86,156.13c-2.52,0-3.81,2.15-3.81,6.52,0,.52,0,1.05.07,1.58.36,4.94,1.98,7.64,4.64,7.64,2.51,0,4.01-2.63,4.01-6.98,0-5.18-2.07-8.76-4.91-8.76ZM158.39,156.13c-2.55,0-3.84,2.15-3.84,6.52-.02.52-.02,1.05.07,1.58.34,4.94,1.98,7.64,4.69,7.64,2.52,0,4.03-2.63,4.03-6.98,0-5.18-2.07-8.76-4.95-8.76ZM158.39,156.13c-2.55,0-3.84,2.15-3.84,6.52-.02.52-.02,1.05.07,1.58.34,4.94,1.98,7.64,4.69,7.64,2.52,0,4.03-2.63,4.03-6.98,0-5.18-2.07-8.76-4.95-8.76ZM202.86,156.13c-2.52,0-3.81,2.15-3.81,6.52,0,.52,0,1.05.07,1.58.36,4.94,1.98,7.64,4.64,7.64,2.51,0,4.01-2.63,4.01-6.98,0-5.18-2.07-8.76-4.91-8.76ZM220.68,127.6c-1.9,0-2.88,1.51-3.19,4.95,2.89-.07,3.78-.14,6.66-.44-.38-3.06-1.53-4.51-3.47-4.51ZM220.68,127.6c-1.9,0-2.88,1.51-3.19,4.95,2.89-.07,3.78-.14,6.66-.44-.38-3.06-1.53-4.51-3.47-4.51ZM202.86,156.13c-2.52,0-3.81,2.15-3.81,6.52,0,.52,0,1.05.07,1.58.36,4.94,1.98,7.64,4.64,7.64,2.51,0,4.01-2.63,4.01-6.98,0-5.18-2.07-8.76-4.91-8.76ZM158.39,156.13c-2.55,0-3.84,2.15-3.84,6.52-.02.52-.02,1.05.07,1.58.34,4.94,1.98,7.64,4.69,7.64,2.52,0,4.03-2.63,4.03-6.98,0-5.18-2.07-8.76-4.95-8.76ZM158.39,156.13c-2.55,0-3.84,2.15-3.84,6.52-.02.52-.02,1.05.07,1.58.34,4.94,1.98,7.64,4.69,7.64,2.52,0,4.03-2.63,4.03-6.98,0-5.18-2.07-8.76-4.95-8.76ZM202.86,156.13c-2.52,0-3.81,2.15-3.81,6.52,0,.52,0,1.05.07,1.58.36,4.94,1.98,7.64,4.64,7.64,2.51,0,4.01-2.63,4.01-6.98,0-5.18-2.07-8.76-4.91-8.76ZM220.68,127.6c-1.9,0-2.88,1.51-3.19,4.95,2.89-.07,3.78-.14,6.66-.44-.38-3.06-1.53-4.51-3.47-4.51ZM220.68,127.6c-1.9,0-2.88,1.51-3.19,4.95,2.89-.07,3.78-.14,6.66-.44-.38-3.06-1.53-4.51-3.47-4.51ZM202.86,156.13c-2.52,0-3.81,2.15-3.81,6.52,0,.52,0,1.05.07,1.58.36,4.94,1.98,7.64,4.64,7.64,2.51,0,4.01-2.63,4.01-6.98,0-5.18-2.07-8.76-4.91-8.76ZM158.39,156.13c-2.55,0-3.84,2.15-3.84,6.52-.02.52-.02,1.05.07,1.58.34,4.94,1.98,7.64,4.69,7.64,2.52,0,4.03-2.63,4.03-6.98,0-5.18-2.07-8.76-4.95-8.76ZM158.39,156.13c-2.55,0-3.84,2.15-3.84,6.52-.02.52-.02,1.05.07,1.58.34,4.94,1.98,7.64,4.69,7.64,2.52,0,4.03-2.63,4.03-6.98,0-5.18-2.07-8.76-4.95-8.76ZM202.86,156.13c-2.52,0-3.81,2.15-3.81,6.52,0,.52,0,1.05.07,1.58.36,4.94,1.98,7.64,4.64,7.64,2.51,0,4.01-2.63,4.01-6.98,0-5.18-2.07-8.76-4.91-8.76ZM220.68,127.6c-1.9,0-2.88,1.51-3.19,4.95,2.89-.07,3.78-.14,6.66-.44-.38-3.06-1.53-4.51-3.47-4.51ZM220.68,127.6c-1.9,0-2.88,1.51-3.19,4.95,2.89-.07,3.78-.14,6.66-.44-.38-3.06-1.53-4.51-3.47-4.51ZM202.86,156.13c-2.52,0-3.81,2.15-3.81,6.52,0,.52,0,1.05.07,1.58.36,4.94,1.98,7.64,4.64,7.64,2.51,0,4.01-2.63,4.01-6.98,0-5.18-2.07-8.76-4.91-8.76ZM158.39,156.13c-2.55,0-3.84,2.15-3.84,6.52-.02.52-.02,1.05.07,1.58.34,4.94,1.98,7.64,4.69,7.64,2.52,0,4.03-2.63,4.03-6.98,0-5.18-2.07-8.76-4.95-8.76ZM158.39,156.13c-2.55,0-3.84,2.15-3.84,6.52-.02.52-.02,1.05.07,1.58.34,4.94,1.98,7.64,4.69,7.64,2.52,0,4.03-2.63,4.03-6.98,0-5.18-2.07-8.76-4.95-8.76ZM202.86,156.13c-2.52,0-3.81,2.15-3.81,6.52,0,.52,0,1.05.07,1.58.36,4.94,1.98,7.64,4.64,7.64,2.51,0,4.01-2.63,4.01-6.98,0-5.18-2.07-8.76-4.91-8.76ZM202.86,156.13c-2.52,0-3.81,2.15-3.81,6.52,0,.52,0,1.05.07,1.58.36,4.94,1.98,7.64,4.64,7.64,2.51,0,4.01-2.63,4.01-6.98,0-5.18-2.07-8.76-4.91-8.76ZM158.39,156.13c-2.55,0-3.84,2.15-3.84,6.52-.02.52-.02,1.05.07,1.58.34,4.94,1.98,7.64,4.69,7.64,2.52,0,4.03-2.63,4.03-6.98,0-5.18-2.07-8.76-4.95-8.76ZM158.39,156.13c-2.55,0-3.84,2.15-3.84,6.52-.02.52-.02,1.05.07,1.58.34,4.94,1.98,7.64,4.69,7.64,2.52,0,4.03-2.63,4.03-6.98,0-5.18-2.07-8.76-4.95-8.76ZM158.39,156.13c-2.55,0-3.84,2.15-3.84,6.52-.02.52-.02,1.05.07,1.58.34,4.94,1.98,7.64,4.69,7.64,2.52,0,4.03-2.63,4.03-6.98,0-5.18-2.07-8.76-4.95-8.76ZM158.39,156.13c-2.55,0-3.84,2.15-3.84,6.52-.02.52-.02,1.05.07,1.58.34,4.94,1.98,7.64,4.69,7.64,2.52,0,4.03-2.63,4.03-6.98,0-5.18-2.07-8.76-4.95-8.76ZM158.39,156.13c-2.55,0-3.84,2.15-3.84,6.52-.02.52-.02,1.05.07,1.58.34,4.94,1.98,7.64,4.69,7.64,2.52,0,4.03-2.63,4.03-6.98,0-5.18-2.07-8.76-4.95-8.76Z"></path>
</svg>
