<svg xmlns="http://www.w3.org/2000/svg" viewBox="0 0 400 300">
  <g>
    <path d="M123.6,149.06c.95-.47,1.99-1.04,2.94-1.52.38-.19,1.71-.66,1.9-1.04.09-.19,0-.76,0-1.04v-36.45c0-.09.09-.76,0-.85-.09-.09-.85,0-.95,0h-2.09c-.76,0-.66.09-1.14.66-1.8,2.37-3.61,4.75-5.41,7.21-.85,1.14-1.71,2.18-2.47,3.32-.57.76-.57.85-1.61.85.09-2.09.19-4.18.28-6.26.09-1.52.09-3.04.19-4.56,0-.57.09-1.14.09-1.71,0-.19-.09-.76,0-.85.19-.28,1.9-.09,2.37-.09h35.5c.19,0,1.04-.09,1.23,0,.19.09.09.66.09.95.09,1.23.09,2.56.19,3.8.09,2.75.19,5.41.38,8.16v.57c-.47,0-.85.09-1.23-.19-.38-.28-.66-.85-.95-1.23-1.14-1.52-2.28-3.13-3.51-4.65-1.14-1.52-2.28-3.04-3.42-4.56-.19-.28-.47-.95-.85-1.14-.28-.19-.85-.09-1.23-.09h-1.52c-.19,0-.95-.09-1.14,0-.09.09,0,.09-.09.28-.19.76,0,1.71,0,2.47v33.03c0,.66-.19,1.61,0,2.28s1.71,1.14,2.37,1.42c.66.38,1.8.66,2.37,1.23.19.19.38,1.14.19,1.42-.09.09-.57,0-.66,0h-20.88c-.19,0-.85.09-.95,0-.09-.38,0-1.14,0-1.42ZM158.82,147.36v-40.25c0-.57.19-1.42,0-1.99-.19-.66-1.33-.76-1.99-1.04-.38-.09-1.61-.38-1.8-.76v-.76h.28c.38-.19,1.14-.19,1.61-.28.85-.19,1.71-.28,2.47-.47,1.9-.38,3.89-.76,5.79-1.04,1.14-.19,2.28-.47,3.42-.66.28,0,1.42-.19,1.52,0,.09.09,0,.47,0,.57v19.65c3.61-3.61,9.87-5.6,14.9-4.37,4.37,1.04,5.79,5.13,5.79,9.3.09,5.32,0,10.54,0,15.85v4.27c0,.47-.19,1.61,0,2.09.09.19.47.28.66.47.66.38,1.42.76,2.09,1.14.09.09.38.19.38.28.09.09.09.95,0,1.04-.09.19-.09.09-.38.09-1.04.19-2.18,0-3.13,0h-13.67c-.09,0-.57.09-.66,0s-.09-1.14,0-1.23c.28-.38,1.42-.76,1.8-1.04.28-.19,1.14-.47,1.33-.76.19-.28,0-1.33,0-1.61v-3.89c0-5.51.09-11.11,0-16.61,0-1.61-.28-3.51-1.9-4.37-.85-.47-1.99-.57-2.94-.57-.76,0-1.52.19-2.18.38-.57.19-1.61.57-1.99,1.04-.28.38-.09.95-.09,1.42v22.4c0,.47-.19,1.42,0,1.8.09.19.47.38.76.47.66.38,1.52.76,2.18,1.14.09.09.28.09.28.19.09.09.09.95,0,1.04s-.19.09-.38.09c-1.04.09-2.18,0-3.23,0h-13.67c-.09,0-.57.09-.66,0s0-1.04.09-1.23c.28-.38,1.33-.76,1.71-.95.66-.28,1.14-.57,1.61-.85ZM203.9,134.26c.19,4.18,1.52,8.83,5.32,11.11,1.99,1.14,4.46,1.52,6.74,1.33,2.75-.28,5.03-1.61,7.4-2.85,0,.38.09,1.04,0,1.42-.19.38-.66.85-.95,1.14-.38.38-.85.85-1.33,1.23-1.61,1.33-3.42,2.28-5.32,2.94-3.61,1.23-7.78,1.14-11.49.19-2.94-.76-5.6-2.18-7.59-4.46s-3.13-5.22-3.61-8.26c-1.04-6.55.19-14.05,5.6-18.42,4.75-3.8,12.34-4.56,17.94-2.28,6.83,2.75,7.97,10.54,7.97,16.99h-18.13c-.85-.09-1.71-.09-2.56-.09ZM203.71,132.64c1.9-.09,3.8-.19,5.79-.38,1.14-.09,2.37-.09,3.51-.19.19,0,.66,0,.85-.09.28-.19.09-2.09.09-2.47-.09-3.42-.19-7.59-2.18-10.54-1.42-2.09-3.61-1.71-4.94.19-2.75,3.7-3.13,9.21-3.13,13.48h0ZM60,167.29c0-5.32,1.04-10.82,3.99-15.28,2.85-4.37,7.4-7.21,12.34-8.64,5.98-1.71,12.62-1.52,18.79-.38,1.33.28,2.66.57,3.89.95.19.09,1.04.28,1.14.47v.28c.28,1.14.09,2.56.09,3.7.09,2.94.09,5.98.19,8.92-.38,0-1.04.09-1.33,0-.19-.09-.38-.57-.47-.76-.76-1.14-1.52-2.28-2.18-3.51-1.61-2.56-3.32-5.13-4.94-7.69-.85-1.42-3.23-1.42-4.75-1.42-1.71,0-3.42.28-4.84,1.14-3.23,1.99-4.75,5.89-5.6,9.4-1.33,5.6-1.23,11.49-.95,17.18.28,4.37.66,9.02,2.37,13,1.04,2.47,2.85,4.65,5.6,5.22.85.19,1.71.19,2.66.09.57-.09,2.56-.19,2.85-.76.09-.19,0-.66,0-.85v-15.57c0-.66.19-.95-.38-1.33-.66-.38-1.42-.76-2.09-1.23-.47-.28-1.42-.57-1.71-.95-.19-.19-.28-1.23-.09-1.42.09-.19.09-.09.38-.09.85-.19,1.99,0,2.85,0h14.71c.95,0,1.99-.09,2.94,0h.38c.09.09.09,1.42,0,1.61-.19.28-1.14.66-1.52.85-.66.38-1.42.76-2.09,1.23-.76.38-.66.38-.66,1.23v15.47c0,.19.09.66,0,.85-.19.47-2.18.76-2.75.95-1.61.47-3.32.85-5.03,1.14-3.32.57-6.64.76-9.97.66-5.32-.19-10.92-1.33-15.28-4.56-3.8-2.75-6.26-6.93-7.4-11.49-.85-2.66-1.14-5.6-1.14-8.45ZM103.76,158.65c0-.19-.09-.95,0-1.04s.19,0,.28-.09c.57-.28,1.33-.28,1.99-.38,2.18-.38,4.37-.76,6.64-1.14,1.71-.28,3.42-.66,5.03-.85.47-.09,1.04-.09,1.52.09.47.09.28,0,.38.38.19,1.14,0,2.47,0,3.61v19.84c0,2.37-.66,6.74,1.61,8.16,1.14.76,2.75.76,4.08.47,1.04-.19,3.04-.95,3.42-2.09.09-.28,0-.66,0-.95v-23.26c0-.19.09-.76,0-.95-.28-.28-1.23-.57-1.52-.66-.57-.19-1.04-.47-1.61-.66-.19-.09-.85-.19-.95-.38-.09-.09-.09-.95,0-1.04s.09,0,.19-.09c.47-.28,1.33-.19,1.8-.28,3.89-.66,7.88-1.52,11.87-2.09.47-.09.95-.09,1.42,0s.28-.09.38.38c.19.95,0,2.28,0,3.32v27.34c0,.28-.09.76,0,1.14.09.28,0,.19.47.38.95.38,1.99.85,2.94,1.23.28.09.38.09.47.28.09.19.09.85,0,.85-.19.19-1.14.09-1.33.19-2.09.28-4.18.47-6.36.76-1.9.19-3.8.47-5.6.66-.38.09-.76.09-1.14,0-.19,0-.76,0-.85-.09-.09-.19,0-.95,0-1.14v-1.61c0-.28.19-1.04,0-1.33s-.57.09-.85.28c-.76.66-1.61,1.33-2.47,1.8-3.13,1.9-7.02,2.75-10.63,1.99-2.66-.57-4.94-2.09-6.08-4.65-.85-1.8-1.04-3.8-1.04-5.7v-19.93c0-.19.09-.76,0-.95-.19-.28-1.33-.57-1.61-.76-.95-.38-1.71-.66-2.47-1.04ZM193.27,155.04c.19,0,1.04,0,1.14.19.09.09,0,.76,0,.85v8.35c0,.28-.09.76,0,1.04v.19c.38.38.47-.85.57-.95.85-3.51,2.47-7.59,6.08-9.02.66-.28,1.33-.38,1.99-.47.57,0,2.18-.19,2.47.28.09.19,0,.66,0,.85v9.68c-2.28-.47-4.84-.38-7.02.09-1.04.19-1.99.47-2.94.95-.47.19-.57.09-.66.47-.09.38,0,1.04,0,1.42v18.32c0,.19-.09.47,0,.66.19.28.85.47,1.14.57.47.28,1.04.57,1.52.85.19.09.47.19.57.38.09.09.09,1.23,0,1.33s-.66,0-.85,0h-15.76c-.47,0-1.33.19-1.71,0h-.28c-.09-.09,0-1.14,0-1.23.19-.57,1.42-.95,1.99-1.23.38-.19,1.14-.47,1.33-.85.09-.19,0-.76,0-.95v-26.39c0-.09.09-.57,0-.66-.09-.09-.57-.19-.76-.19-.57-.19-1.14-.38-1.71-.47-.57-.19-1.99-.28-1.52-1.23.09-.28.47-.19.85-.28,4.18-.76,8.26-1.52,12.43-2.28.38-.19.76-.19,1.14-.28ZM229.06,155.9v-9.78c0-.28.09-.85,0-1.14-.09-.19-.47-.28-.76-.38-.76-.28-1.52-.57-2.37-.85-.57-.19-.85-.09-.85-.76,0-.57-.09-.38.38-.47,1.04-.38,2.28-.38,3.32-.57,3.13-.57,6.17-1.14,9.3-1.71.66-.09,1.33-.28,1.99-.19.76.09.85-.09.85.57.09,1.52,0,3.13,0,4.65v41.58c0,.38-.09.38.19.57.57.38,1.52.57,2.09.76.38.09,1.42.28,1.61.57.09.09.09,1.14,0,1.23-.09.09-.66.09-.76.09-1.33.19-2.56.38-3.89.47-2.94.38-5.89.76-8.92,1.14-.47.09-1.61.28-1.8-.09s0-1.61,0-1.99c0-.28.19-1.52,0-1.71-.19-.19-2.28,1.71-2.56,1.9-1.14.76-2.37,1.33-3.7,1.71-2.09.57-4.46.57-6.55.09-9.11-2.09-11.01-12.91-10.25-20.79.38-4.18,1.71-8.35,4.56-11.39,2.66-2.75,6.26-4.18,9.97-4.46,2.85-.28,5.6-.09,8.16.95ZM229.06,186.18v-27.72c0-.57-.09-.66-.76-1.04-1.33-.76-3.04-1.04-4.46-.47-2.18.85-3.23,3.42-3.8,5.51-1.14,3.8-1.23,7.88-1.14,11.87.09,3.42.19,7.59,2.09,10.63,1.71,2.66,5.6,3.32,8.07,1.23ZM260.48,155.04c.47.09,1.04-.09,1.23.38.09.28,0,.95,0,1.23v29.71c0,.38-.09.95,0,1.33s.47.47.85.66c.57.28,1.04.57,1.61.85.19.09.76.28.85.57,0,.09.09,1.23,0,1.33h-.28c-.57.09-1.33,0-1.99,0h-14.43c-.38,0-1.42.19-1.71,0-.19-.09-.28-1.23-.09-1.42.19-.28.85-.47,1.14-.57.57-.28,1.14-.66,1.71-.95.47-.28.38-.19.38-.57.19-1.42,0-3.04,0-4.46v-21.17c0-.38.09-1.04,0-1.42s-.57-.38-.95-.57c-.66-.28-1.23-.47-1.9-.76-.19-.09-.95-.19-1.14-.47-.09-.09-.09-1.04,0-1.14.09-.09.28,0,.38-.09.76-.28,1.61-.28,2.47-.47,1.23-.19,2.37-.47,3.61-.66,2.37-.38,4.65-.85,7.02-1.23.47.09.85,0,1.23-.09ZM261.81,146.22c-.19,5.7-7.88,8.16-11.39,3.7-1.61-2.09-1.71-4.94-.28-7.12s4.18-3.13,6.74-2.56c2.85.57,4.94,3.04,4.94,5.98ZM303.38,187.89v-27.24c0-.09.09-.57,0-.66-.09-.19-.66-.28-.85-.28-.57-.19-1.14-.38-1.71-.57-.28-.09-1.04-.19-1.23-.47-.19-.19-.09-.66-.09-.95,0-.57.19-.47.76-.57,2.09-.38,4.18-.76,6.26-1.14,2.09-.38,4.18-.76,6.26-1.14.38-.09.66-.19,1.04-.19.19,0,1.14,0,1.33.09.09.09,0,.66,0,.85v1.8c0,.28-.19,1.14,0,1.42.19.38.57,0,.85-.28.85-.66,1.71-1.23,2.66-1.71,3.42-1.9,7.5-2.75,11.39-2.18,2.66.38,4.84,1.8,5.79,4.37.66,1.8.76,3.7.76,5.6v21.64c0,.38-.09,1.04,0,1.42s.38.47.85.66c.47.28,1.04.57,1.52.85.19.09.85.28.95.57.09.19.09,1.14,0,1.23-.09.19.09,0-.19.09-.38.19-1.23,0-1.71,0h-13.57c-.57,0-2.75.28-3.04-.09-.09-.09-.09-1.14,0-1.33.09-.19.66-.38.85-.47.57-.28,1.04-.57,1.61-.85.19-.09.76-.28.85-.47s0-.57,0-.76v-21.55c0-1.52.09-3.23-.85-4.56-.76-1.14-2.09-1.42-3.42-1.52-1.04,0-1.99.09-2.94.38-.47.19-1.9.57-2.18,1.14-.09.19,0,.57,0,.76v24.59c0,.28-.09.95,0,1.23.09.38.66.47.95.66.47.28,1.04.57,1.52.85.19.09.57.28.66.38s.09,1.23,0,1.33c0,.09-.09,0-.19,0-.38.19-1.33,0-1.71,0h-15.95c-.47,0-.57.09-.66-.19-.09-.19-.09-1.04,0-1.23.09-.19.66-.38.85-.47.95-.09,1.71-.57,2.56-1.04ZM283.26,170.42c0-2.47.09-5.03-.09-7.59-.28-2.75-1.04-5.79-4.18-6.36-.95-.19-2.66-.47-3.32.28-.66.66-1.14,1.61-1.71,2.37-1.61,2.18-3.23,4.37-4.84,6.55-.28.38-.57,1.14-.95,1.33-.09.09-1.04.09-1.04,0-.09-.09,0-.76,0-.95v-7.69c0-.28-.09-.76,0-1.04.19-.47,2.28-.76,2.75-.95,2.66-.66,5.41-1.14,8.16-1.33,3.89-.28,8.26-.19,11.87,1.52,2.85,1.33,4.65,3.7,5.13,6.74.28,1.52.19,3.23.19,4.75v18.98c0,.28-.19,1.04,0,1.23.09.09.57.19.66.19.76.19,1.42.38,2.18.57.47.09.57.09.57.57s.09.47-.47.66c-.66.28-1.33.57-1.99.76-3.51,1.04-9.02,1.33-11.58-1.9-.19-.28-.76-1.52-1.04-1.61-.38-.09-1.52,1.42-1.9,1.71-1.52,1.33-3.51,2.09-5.51,2.37-3.7.47-7.69-.28-9.97-3.51-1.9-2.75-2.28-7.02-.85-10.06,2.56-5.79,10.16-6.36,15.66-7.31.66,0,1.42-.19,2.28-.28ZM283.26,186.18v-14.05c-2.85.19-5.79.38-6.83,3.51-.76,2.09-.76,4.56-.47,6.74.19,1.52.57,3.42,1.99,4.37,1.52,1.04,4.08.85,5.32-.57ZM163.09,170.42c0-2.47.09-5.03-.09-7.59-.28-2.75-1.04-5.79-4.18-6.36-.95-.19-2.66-.47-3.32.28-.66.66-1.14,1.61-1.71,2.37-1.61,2.18-3.23,4.37-4.84,6.55-.28.38-.57,1.14-.95,1.33-.09.09-1.04.09-1.04,0-.09-.09,0-.76,0-.95v-7.59c0-.28-.09-.76,0-1.04.19-.47,2.18-.76,2.75-.95,2.66-.66,5.41-1.14,8.07-1.33,3.89-.28,8.26-.19,11.87,1.52,2.85,1.33,4.65,3.7,5.13,6.74.28,1.52.19,3.23.19,4.75v18.98c0,.28-.19,1.04,0,1.23.09.09.57.19.66.19.76.19,1.42.38,2.18.57.47.09.57.09.57.57s.09.47-.47.66c-.66.28-1.33.57-1.99.76-3.51,1.04-9.02,1.33-11.58-1.9-.19-.28-.76-1.52-1.04-1.61-.38-.09-1.52,1.42-1.8,1.71-1.52,1.33-3.51,2.09-5.51,2.37-3.7.47-7.69-.28-9.97-3.51-1.9-2.75-2.28-7.02-.85-10.06,2.56-5.79,10.16-6.36,15.57-7.31.76-.09,1.52-.28,2.37-.38ZM163.09,186.18v-14.05c-2.85.19-5.79.38-6.83,3.51-.76,2.09-.76,4.56-.47,6.74.19,1.52.57,3.42,1.99,4.37,1.52,1.04,4.08.85,5.32-.57Z"></path>
  </g>
</svg>
