<svg xmlns="http://www.w3.org/2000/svg" viewBox="0 0 400 300">
  <path d="M83.25,132.16c0-.56.51-1.06,1.07-1.06h5.25c.58,0,1.06.47,1.06,1.05,0,0,0,0,0,0v14.71h18.37v-14.71c0-.56.46-1.06,1.08-1.06h5.18c.57,0,1.07.5,1.07,1.06v36.77c0,.56-.51,1.06-1.07,1.06h-5.18c-.62,0-1.08-.5-1.08-1.06v-15.33h-18.37v15.33c0,.58-.47,1.06-1.05,1.06,0,0,0,0,0,0h-5.25c-.56,0-1.07-.5-1.07-1.06v-36.77ZM146.85,156.72l-5.64-12.22h-.17l-5.52,12.22h11.33ZM122.49,168.54l17.53-37.39c.17-.33.45-.61.96-.61h.56c.56,0,.78.28.96.61l17.36,37.39c.34.72-.11,1.45-.95,1.45h-4.91c-.84,0-1.24-.32-1.65-1.11l-2.76-6h-16.85l-2.76,6c-.23.55-.73,1.11-1.63,1.11h-4.92c-.83,0-1.29-.73-.95-1.45M182.59,148.82c2.98,0,5.58-2.54,5.58-5.65,0-2.95-2.6-5.4-5.58-5.4h-9.19v11.05h9.19ZM166.02,132.16c0-.56.45-1.05,1.07-1.05h16.13c6.77,0,12.29,5.32,12.29,11.94,0,5.1-3.43,9.27-8.34,11.21l7.73,14.11c.39.73,0,1.61-.96,1.61h-5.92c-.5,0-.78-.28-.9-.5l-7.5-14.73h-6.26v14.17c0,.56-.51,1.06-1.07,1.06h-5.19c-.59,0-1.06-.47-1.07-1.05,0,0,0,0,0,0v-36.77ZM219.97,148.82c2.98,0,5.57-2.54,5.57-5.65,0-2.95-2.59-5.4-5.57-5.4h-9.19v11.05h9.19ZM203.4,132.16c0-.56.44-1.05,1.06-1.05h16.13c6.77,0,12.29,5.32,12.29,11.94,0,5.1-3.43,9.27-8.35,11.21l7.74,14.11c.39.73,0,1.61-.95,1.61h-5.93c-.5,0-.79-.28-.89-.5l-7.51-14.73h-6.25v14.17c0,.56-.51,1.06-1.07,1.06h-5.19c-.58,0-1.06-.46-1.06-1.05,0,0,0,0,0,0v-36.77ZM249.65,151.27l-12.84-18.55c-.46-.72,0-1.61.9-1.61h5.74c.45,0,.74.27.9.5l9.02,12.78,9.03-12.78c.17-.23.44-.5.9-.5h5.81c.9,0,1.35.88.9,1.61l-13.02,18.5v17.72c0,.56-.51,1.05-1.08,1.05h-5.18c-.62,0-1.08-.5-1.08-1.05v-17.67ZM291.09,163.98l2.02-3.44c.46-.79,1.42-.79,1.93-.39.27.16,4.85,3.44,8.51,3.44,2.93,0,5.12-1.88,5.12-4.27,0-2.84-2.43-4.77-7.16-6.66-5.29-2.12-10.6-5.45-10.6-12.01,0-4.94,3.72-10.66,12.68-10.66,5.75,0,10.14,2.89,11.28,3.72.57.33.73,1.27.33,1.83l-2.12,3.16c-.45.66-1.31,1.11-1.99.66-.45-.27-4.74-3.05-7.83-3.05s-4.97,2.11-4.97,3.89c0,2.61,2.09,4.39,6.65,6.21,5.48,2.18,11.79,5.4,11.79,12.56,0,5.73-5.02,11.01-12.97,11.01-7.1,0-11.28-3.27-12.4-4.33-.51-.5-.8-.78-.28-1.67M280.05,131.11c-3,0-5.33,2.3-5.33,5.24,0,2.76,2.09,4.93,4.76,4.93.4,0,1.01-.02,1.61-.19,0,.07,0,.14,0,.21,0,3.04-2.43,4.04-2.75,4.07-.34,0-.62.06-.84.15-.37.18-.58.51-.58.89,0,.59.56,1.09,1.21,1.09,4.31,0,7.95-4.32,7.95-9.45,0-4.57-3.04-6.96-6.03-6.96"></path>
</svg>
