<svg xmlns="http://www.w3.org/2000/svg" viewBox="0 0 400 300">
      <path d="M88.79,166.83h10.96l5.87-33.62h-10.96l-2.17,12.04h-9.5l2.17-12.04h-10.96l-5.87,33.62h10.96l2.21-12.58h9.5s-2.21,12.58-2.21,12.58Z"></path>
      <path d="M111.82,133.17l-3.33,18.71c-.29,1.46-.42,2.87-.42,4.21,0,9.92,8.67,11.42,13.87,11.42,10.92,0,15.62-3.62,17.33-13.41l3.67-20.96h-10.96l-3.12,17.58c-1,5.5-1.71,8.37-5.79,8.37-2.67,0-3.96-1.42-3.96-4.33,0-1.12.17-2.5.5-4.21l3.17-17.41h-10.96v.04Z"></path>
      <path d="M200.85,166.83h10.96l1.54-8.67h5.17c9.54,0,14.83-5.17,14.83-14.58,0-6.62-4.58-10.42-12.62-10.42h-14l-5.87,33.66ZM217.94,149.88h-3.17l1.46-7.92h2.96c2.42,0,3.71,1.21,3.71,3.42,0,2.79-1.87,4.5-4.96,4.5Z"></path>
      <path d="M254.64,132.46c-11.92,0-19.04,7.71-19.04,20.66,0,9,5.67,14.41,15.16,14.41,11.92,0,19.04-7.71,19.04-20.66.04-9.04-5.62-14.41-15.16-14.41h0ZM251.43,158.83c-2.83,0-4.5-2.04-4.5-5.46,0-1.29.12-2.42.37-3.71.83-4.42,2.25-8.46,6.71-8.46,2.83,0,4.5,2.04,4.5,5.46,0,1.29-.12,2.42-.37,3.71-.83,4.37-2.25,8.46-6.71,8.46Z"></path>
      <path d="M307.92,166.83h10.96l4.33-24.62h8.25l1.58-9h-28.04l-1.58,9h8.75l-4.25,24.62Z"></path>
      <path d="M289.76,145.63c-3.46-1.08-4.87-1.54-4.87-3.17,0-1.08.71-2.37,2.79-2.37,1.54,0,2.83.87,3.33,2.17l9.67-2.62c-1.12-4.75-5.21-7.17-12.25-7.17-13.25,0-14.29,8.87-14.29,11.58,0,5.5,2.92,8.87,9.25,10.62,1.67.46,3.58.96,3.58,2.79,0,1.46-1.08,2.37-2.96,2.37-1.71,0-3.54-1-4.17-2.75l-9.54,2.58c1.04,5,5.75,7.83,13.12,7.83,5.62,0,15.04-1.5,15.04-11.67.04-5.08-2.83-8.42-8.71-10.21h0Z"></path>
      <path d="M62.21,166.83l5.92-33.62h-18.12v33.62h12.21Z"></path>
      <path d="M337.75,133.21l-5.87,33.62h18.12v-33.62h-12.25Z"></path>
      <polygon points="156.03 156.92 165.23 156.92 166.73 148.46 157.53 148.46 158.57 142.21 171.44 142.21 173.02 133.17 149.19 133.17 143.32 166.83 154.28 166.83 156.03 156.92"></polygon>
      <polygon points="184.73 156.92 193.98 156.92 195.48 148.46 186.27 148.46 187.31 142.21 200.19 142.21 201.77 133.17 177.94 133.17 172.07 166.83 183.02 166.83 184.73 156.92"></polygon>
</svg>
