<svg xmlns="http://www.w3.org/2000/svg"viewBox="0 0 400 300">
  <path d="M73.1,142.2l7.5,16.8,7.4-16.7c2.2-4.9,2.9-8,3.3-9.5h9.6v2c-3.1.3-3.9,1.5-3.9,3.8s0,1.3.1,2l2.4,19.7c.3,2.9,1.5,4.6,5.2,5v1.9h-15v-1.9c3,0,4.5-1.6,4.5-4.2s0-.7-.1-1.1l-2.3-20.3-7.9,18.5c-1.5,3.5-2.4,5.9-3.3,9h-2c-1.2-3.3-2.7-6.4-3.8-8.8l-9-18.6-2.8,18.2c-.1.9-.2,1.8-.2,2.5,0,3.3,1.5,4.6,4.7,4.8v1.9h-11.8v-1.9c3,0,4.3-1.5,4.8-5.1l2.8-18.7c.1-.9.2-1.7.2-2.4,0-2.8-1.1-4.1-3.9-4.3v-2h9.9c.7,2.6,1.9,5.9,3.5,9.4ZM123.5,167.2c-7.9-2-13.3-8.6-13.3-16.8s7.7-18.2,17-18.2,3.7.1,5.4.6c7.8,2,13.1,8.1,13.1,16.7s-7.5,18.3-16.9,18.3c-1.9,0-3.7-.1-5.4-.6ZM116,147.2c0,7.1,4.5,18.3,13.5,18.3s10.6-6.1,10.6-12.6-4.5-18.3-13.5-18.3c-7.2,0-10.6,6.1-10.6,12.6ZM155,136.8c-1.6-1.6-2.7-1.9-4.7-2.1v-2h8.2l25.8,26.2v-16.6c0-3.9-.9-7.7-6-7.7v-2h13.7v2c-3.8,0-5.4,3.1-5.4,7.7v15.1c0,4.3,0,6.4.3,10.1h-2.5c-1.6-2.1-3-3.6-4.2-4.8l-20.9-21.5v17.5c0,4.5,2.1,6.4,6.2,6.4v1.9h-14.4v-1.9c4.4,0,6.1-1.4,6.1-5.3v-21l-2.3-2.2ZM209.9,167.2c-7.9-2-13.3-8.6-13.3-16.8,0-10.9,7.7-18.2,17-18.2s3.7.1,5.4.6c7.8,2,13.1,8.1,13.1,16.7s-7.5,18.3-16.9,18.3c-1.9,0-3.7-.1-5.4-.6ZM202.4,147.2c0,7.1,4.5,18.3,13.5,18.3s10.6-6.1,10.6-12.6-4.5-18.3-13.5-18.3c-7.2,0-10.6,6.1-10.6,12.6ZM269.7,141.4c-2.6-4.3-8-6.8-12.4-6.8-7.4,0-12.3,6.4-12.3,14.2s4.7,16.6,14,16.6,8.8-3.5,11.1-8.9h2.4l-2,8.8c-3.2,1.4-8.3,2.5-12.1,2.5s-6.1-.4-9-1.6c-5.8-2.5-10.3-7.7-10.3-15.3,0-11.4,8.6-18.6,19.6-18.6s7.4.4,10.4,1.2l2.2,7.8-1.6.2ZM278.5,134.8v-2h16.8v2c-4.7,0-5.8,2-5.8,4.9v18.8c0,4.6,1.7,6.6,6.7,6.6h.8c4.4,0,7.3-1.7,9.9-6.2h2.1l-2.1,8.4h-28.4v-1.9c4.8-.3,5.8-1.4,5.8-5.7v-19.7c0-3.4-1.2-5.1-5.8-5.1ZM312.6,167.2v-1.9c3.9,0,5.4-1.5,5.4-5.1v-20.3c0-3.3-1.3-5.2-5.4-5.2v-2h28.9v7.7h-1.8c-1.8-4.6-3.9-5.5-8.1-5.5h-8.3v13.9h4.9c4.8,0,6.3-.8,6.5-4.4h2v11h-2c-.6-3.8-2-4.4-6.4-4.4h-5v7.7c0,4.9,1.4,6.3,5.9,6.3h2.2c5.7,0,8.1-1.5,10.5-6.2h2.3l-2.3,8.4h-29.3Z"/>
</svg>