<svg xmlns="http://www.w3.org/2000/svg" viewBox="0 0 400 300">
  <path d="M119.52,176.13c-3.34.59-6.74.76-10.25,1.23l-10.72-31.41v32.75c-3.34.35-6.39.82-9.55,1.29v-60h8.91l12.19,34.04v-34.04h9.43v56.13h0ZM137.98,141.97c3.63,0,9.2-.18,12.54-.18v9.37c-4.16,0-9.02,0-12.54.18v13.95c5.51-.35,11.02-.82,16.58-1v9.02l-25.96,2.05v-55.37h25.96v9.38h-16.58s0,12.6,0,12.6ZM189.42,129.38h-9.73v43.12c-3.16,0-6.33,0-9.37.12v-43.24h-9.73v-9.38h28.83s0,9.38,0,9.38ZM204.66,141.33h12.83v9.37h-12.83v21.27h-9.2v-51.97h26.19v9.38h-16.99v11.95ZM236.88,163.77c5.33.12,10.72.53,15.94.82v9.26c-8.38-.53-16.76-1.05-25.31-1.23v-52.62h9.37v43.77h0ZM260.73,174.49c2.99.18,6.15.35,9.2.7v-55.2h-9.2v54.49ZM311.01,120l-11.89,28.54,11.89,31.46c-3.52-.47-7.03-1.11-10.55-1.7l-6.74-17.34-6.85,15.94c-3.4-.59-6.68-.76-10.08-1.23l12.07-27.48-10.9-28.18h10.08l6.15,15.76,6.56-15.76h10.25Z"></path>
</svg>
