<svg xmlns="http://www.w3.org/2000/svg" viewBox="0 0 400 300">
  <path d="M199.89,90c-40.81.08-42.54,50.99-42.53,60.35.06,28.37,11.61,59.72,42.75,59.65,31.14-.06,42.56-31.65,42.51-60.02-.02-9.34-1.91-60.06-42.74-59.98ZM200.12,208.3c-29.58.06-37.56-31.4-37.62-58.35-.02-8.89-1.51-58.47,37.27-58.55,38.77-.08,37.71,49.77,37.72,58.66.05,26.94-7.78,58.17-37.37,58.24Z"></path>
  <path d="M210.73,117.58c-.34-4.22-.09-8.95-2.93-12.43-.82-1.02-1.99-1.95-3.15-2.56-1.24-.64-2.83-1.05-4.23-1.05-1.32,0-2.65.21-3.91.58-1.49.45-2.98.98-4.52,1.21-1.8.24-3.25.15-5.01-.24-1.04-.23-1.33-.32-2.38-.55-.56-.12-2.15-.57-2.64-.08-1.18,1.18,1.33,2.61,2.07,3.15,1.63,1.18,2.32,1.57,3.88,2.93,2.11,1.84,3.79,4.01,4.43,6.74.18.8.24,1.59.25,2.4.16,11.8-19.52,23.36-19.25,44.24.1,7.38,4.04,8.6,3.99,4.49-.06-4.86,1.67-10.11,3.45-14.62.42-1.04,1.74-1.35,1.44.45-.47,2.86-1.64,7.81-1.53,15.87.03,1.94.14,3.91.42,5.83.23,1.56.56,3.1,1.02,4.61.37,1.26.87,2.49,1.49,3.65.49.91,1.06,1.79,1.72,2.59.67.78,1.37,1.35,2.17,1.98.46.36.98.69,1.2,1.27.33.85-.75,1.2-1.32,1.45-.63.28-1.18.59-1.77.88-.86.42-1.69.86-2.52,1.32-.51.29-1.08.47-1.56.8-.49.33-.74.84.02.96.35.06.72-.04,1.08-.05.59-.02,1.22-.11,1.8.11.76.3.72,1.05.76,1.77.03.77.57,1.03,1.26.83.81-.22,1.36-.83,1.98-1.35.45-.38.93-.77,1.47-1.04,1.06-.52,2.32-.35,3.47-.29.63.04,1.53.31,2.05-.22.52-.51.15-1.43-.08-2-.23-.55-.5-1.09-.77-1.63-.12-.25-.3-.45-.42-.71-.44-1.03,3.14-1.81,3.66-1.94,1.73-.47,3.55-.88,5.35-1.04,1.69-.15,3.57-.15,5.18.53.68.28,1.25.77,1.71,1.34.25.33.85,1.3.31,1.69-.82.6-1.67,1.12-2.48,1.76-.5.39-1,.81-1.43,1.29-.32.37-.41,1.01.25.96.87-.04,1.73-.08,2.6-.09.62,0,1.28.08,1.81.44.86.58,1.05,1.82,2,2.3.27.13.59.13.88.05.64-.19.92-.85,1.26-1.35.31-.47.63-.92,1.13-1.18.3-.17.66-.24,1.01-.24.64,0,1.28.01,1.91.08.5.06,1.18.29,1.63-.05.84-.65-1.37-2.1-1.81-2.36-1.02-.64-2.45-1.3-2.77-2.59-.37-1.53.39-3.1,1.02-4.45.68-1.42,1.59-2.72,2.11-4.22.48-1.36.85-2.79,1.05-4.24,1.11-7.9-.72-16.28-3.03-23.83-.27-.9-.63-1.8-.89-2.7-.39-1.42.98-1.76,1.68-.36.68,1.33,5.1,9.82,6.39,16.14.81,4.02,3.84,4.18,3.75-2.97-.11-10.34-4.03-17.82-8.81-25.45-3.47-5.53-8.34-12.06-8.89-18.79ZM197.88,106.57c1.19-1.83,3.43-2.49,5-1.47,1.57,1.02,1.88,3.34.69,5.17-1.18,1.83-3.43,2.49-5,1.48-1.57-1.03-1.89-3.34-.69-5.18ZM196.52,119.34c2.24-1.76,7.86-2.54,9.2-9.08.05-.25.33-.78,1,0,1.17,1.38,1.1,7.03-.81,9.01-1.13,1.15-3.03,1.3-4.53,1.5-1.67.25-3.27.62-4.91,1.02-1.55.38-1.45-1.27.05-2.44ZM210.73,182.05c-1.68.09-3.77-1.1-6.89-.88-5.3.35-6.87,2.38-11.21,1.61-2.47-.45-4.31-1.85-5.35-4.25-1.18-2.72-1.29-5.82-1.48-8.75-.2-3.28-.2-6.57,0-9.86.14-2.37.39-4.73.71-7.08.52-3.91,1.34-7.77,2.24-11.6.79-3.39,1.6-6.77,3.06-9.95,1.06-2.32,2.66-4.54,5.01-5.72,2.57-1.28,6.18-1.38,8.71-.09,5.72,2.93,5.57,9.77,5.76,15.33.14,4.27.67,8.67,1.44,12.87.85,4.68,2.75,9.13,3.25,13.87.53,5.22,1.11,14.21-5.25,14.51Z"></path>
  <path d="M200.23,110.59c.69.46,1.73.14,2.31-.71.58-.87.51-1.94-.18-2.41-.69-.47-1.72-.15-2.31.7-.58.87-.5,1.94.18,2.42Z"></path>
</svg>
