<?xml version="1.0" encoding="UTF-8"?>
<svg xmlns="http://www.w3.org/2000/svg" id="Layer_1" viewBox="0 0 400 300">
  <defs>
    <style>.cls-1{fill:#100f0f;stroke-width:0px;}</style>
  </defs>
  <path class="cls-1" d="M242.43,107.57c-11.33-11.33-26.4-17.57-42.43-17.57-33.08,0-60,26.92-60,60,0,16.03,6.24,31.09,17.57,42.43,11.33,11.33,26.4,17.57,42.43,17.57s31.09-6.24,42.43-17.57c11.33-11.33,17.57-26.4,17.57-42.43s-6.24-31.09-17.57-42.43ZM200,207.92c-15.47,0-30.02-6.03-40.96-16.97-10.94-10.94-16.97-25.49-16.97-40.96s6.03-30.02,16.97-40.96c10.94-10.94,25.49-16.97,40.96-16.97s30.02,6.02,40.96,16.97c10.94,10.94,16.97,25.49,16.97,40.96,0,31.94-25.98,57.92-57.92,57.92Z"></path>
  <path class="cls-1" d="M200,94.46c-30.67,0-55.54,24.86-55.54,55.54s24.86,55.54,55.54,55.54,55.54-24.87,55.54-55.54-24.86-55.54-55.54-55.54ZM191.88,97.5h4.4l3.98,10.41,3.98-10.41h4.4v14.62h-2.93v-10.21l-3.85,10.21h-3.2l-3.85-10.21v10.21h-2.93v-14.62ZM155.02,121.54l7.13-8.5c1.48-1.76,3.54-3.16,5.5-1.52.61.51.86.68,1.6,2.02.17.48.31,1.34-.02,2.18,1.71-1.06,3.52-.71,4.7.43,1.81,1.76,1.54,3.79-.18,5.84l-7.52,8.96-11.21-9.41ZM200,185.47c-19.59,0-35.48-15.88-35.48-35.47s15.88-35.48,35.48-35.48,35.47,15.88,35.47,35.48-15.88,35.47-35.47,35.47ZM233.05,131.25l-2.65-3.3,5.29-7.73-.03-.04-8.66,3.56-2.68-3.28,9.17-11.8,2.26,2.79-5.74,7.51,8.78-3.77,2.43,3-5.51,7.8,8.54-4.06,2.26,2.79-13.45,6.52Z"></path>
  <path class="cls-1" d="M166.81,150h33.19v-33.19c-18.33,0-33.19,14.86-33.19,33.19Z"></path>
  <path class="cls-1" d="M200,183.19c18.33,0,33.19-14.86,33.19-33.19h-33.19v33.19Z"></path>
  <path class="cls-1" d="M166.05,115.18c-.72-.61-1.84-.63-2.34-.04l-4.28,5.11,2.65,2.22,4.24-5.05c.53-.63.53-1.58-.26-2.24Z"></path>
  <path class="cls-1" d="M171.25,121.1c.59-.71.51-1.81-.36-2.53-.76-.64-1.9-.47-2.41.14l-4.5,5.37,2.8,2.35,4.47-5.32Z"></path>
</svg>
