<?xml version="1.0" encoding="UTF-8"?>
<svg xmlns="http://www.w3.org/2000/svg" id="Layer_1" viewBox="0 0 400 300">
  <defs>
    <style>.cls-1{fill:#100f0f;stroke-width:0px;}</style>
  </defs>
  <path class="cls-1" d="M80,174.54h48.03v-49.08h-48.03v49.08ZM90.11,133.17c1.39,9.08,2.91,18.15,4.52,27.19.27-.68.51-1.36.67-2.07,1.57-7.67,3.25-15.33,4.85-23,.2-.79.42-1.98,1.43-2.06,1.77-.11,3.56-.11,5.33,0,1.45.67,1.27,2.6,1.66,3.92,1.74,7.74,3.07,15.59,5.06,23.26,1.77-9.04,3.06-18.16,4.66-27.23,2.01,0,4.02,0,6.04,0-2.23,10.4-4.2,20.86-6.31,31.28-.21.83-.25,1.83-1.07,2.31-2.28.32-4.63.29-6.91.02-.8-.5-.85-1.5-1.08-2.32-1.66-7.66-3.14-15.36-4.93-23-.31.59-.51,1.23-.63,1.89-1.44,7.12-3,14.21-4.45,21.32-.21.87-.48,2.22-1.63,2.18-2.11.14-4.26.23-6.36-.11-1.16-.8-.93-2.38-1.3-3.58-2.06-10-3.99-20.03-6.13-30,2.19.01,4.38,0,6.57,0Z"></path>
  <path class="cls-1" d="M175.61,174.54h48.03v-49.08h-48.03v49.08ZM186.46,133.17c6.6,0,13.21,0,19.81,0,2.05,0,4.49.26,5.79,2.06,1.63,2.16,1.57,4.99,1.6,7.57,0,2.2-.11,4.61-1.53,6.42-.98,1.32-2.72,1.38-4.07,2.1,1.82.53,4.15,1,4.75,3.11,1.16,4.03.42,8.29,1.02,12.41-2.11,0-4.22,0-6.33,0-.23-3.63-.54-7.26-.71-10.9.03-1.45-1.54-2.39-2.85-2.26-3.61-.02-7.22,0-10.83,0v13.17h-6.66v-33.66Z"></path>
  <path class="cls-1" d="M271.37,125.46v49.08h48.63v-49.08h-48.63ZM308.54,163.02c-2.08,3.09-6.09,3.73-9.54,3.79-5.6.04-11.19,0-16.78.02v-33.66c5.81.02,11.63-.05,17.44.04,3.25.12,6.95.88,8.88,3.77,2.44,3.89,2.05,8.65,2.48,13.04-.42,4.38-.06,9.12-2.48,13Z"></path>
  <path class="cls-1" d="M163.43,138.87c.02-2.01.02-4.02,0-6.03-7.73-.02-15.47-.02-23.2,0-.02,2.01-.02,4.02,0,6.03,2.74.02,5.47,0,8.21,0-.01,7.42-.01,14.84,0,22.25-2.74,0-5.47-.01-8.21,0-.02,2.01-.02,4.02,0,6.03,7.73.02,15.47.02,23.2,0,.03-2,.02-4.02.01-6.02-2.74-.02-5.48-.01-8.21-.01.01-7.42.01-14.84,0-22.25,2.74,0,5.47.01,8.21,0Z"></path>
  <path class="cls-1" d="M254.84,155.25c0,1.96,0,3.91,0,5.87-3.81,0-7.61-.02-11.42.02-.06-2.94-.02-5.88-.03-8.82h8.98v-5.73h-8.98c0-2.57,0-5.15,0-7.72,3.71,0,7.42,0,11.13,0-.01,1.71-.01,3.42,0,5.14h6.16c0-3.72,0-7.45,0-11.17-9.49-.03-18.97-.03-28.45,0-.02,2-.02,4-.01,6,1.53.03,3.05.03,4.58.02.03,7.42.03,14.84,0,22.26-1.53-.01-3.05-.01-4.57,0-.02,2.01-.02,4.01,0,6.01,9.62.03,19.24.03,28.87,0,.05-3.97.02-7.94.02-11.9-2.09-.02-4.18-.02-6.27,0Z"></path>
  <path class="cls-1" d="M205.06,148.37c2.14-.13,2.17-2.69,2.25-4.3-.07-1.77.26-4.11-1.38-5.28-4.26-.22-8.54-.02-12.81-.09v9.75c3.98-.05,7.97.12,11.95-.08Z"></path>
  <path class="cls-1" d="M303.66,141.13c-.51-1.65-2.35-2.44-3.96-2.42-3.61-.04-7.22,0-10.83-.01v22.6c3.41,0,6.81,0,10.22,0,1.63.03,3.61-.4,4.38-2.03,1.14-2.52.86-5.36.96-8.04-.13-3.36.35-6.87-.78-10.1Z"></path>
</svg>
