<?xml version="1.0" encoding="UTF-8"?>
<svg xmlns="http://www.w3.org/2000/svg" id="Layer_1" viewBox="0 0 400 300">
  <defs>
    <style>.cls-1{fill:#100f0f;stroke-width:0px;}</style>
  </defs>
  <g id="g5">
    <path id="path5" class="cls-1" d="M229.35,138.8v22.4h5.03v-22.4h-5.03Z"></path>
    <path id="path4" class="cls-1" d="M204.41,138.8v22.4h4.67v-14.61l10.04,14.61h5.05v-22.4h-4.67v14.96l-10.2-14.96h-4.89Z"></path>
    <path id="path3" class="cls-1" d="M194.55,138.8v22.4h5.03v-22.4h-5.03Z"></path>
    <path id="path2" class="cls-1" d="M165.62,138.8v22.4h4.67v-17.64l4.93,17.64h4.84l4.94-17.64v17.64h4.67v-22.4h-7.55l-4.47,15.28-4.52-15.28h-7.53Z"></path>
  </g>
  <path id="path1" class="cls-1" d="M200,100c-17.07,0-32.96,8.71-42.14,23.1h-71.89l7.16,7.16h61c-1.16,2.69-2.08,5.48-2.75,8.34h-49.91l7.07,7.07h41.69c-.14,1.44-.21,2.89-.22,4.33.01,1.34.08,2.67.2,4h-33.33l7.07,7.07h27.34c.63,2.85,1.52,5.64,2.64,8.34h-21.64l7.16,7.16h18.28c9.13,14.56,25.1,23.41,42.29,23.43,17.19-.02,33.16-8.87,42.29-23.43h18.27l7.16-7.16h-21.64c1.12-2.7,2-5.49,2.64-8.34h27.34l7.07-7.07h-33.33c.12-1.33.19-2.67.2-4-.01-1.45-.08-2.89-.22-4.33h41.68l7.07-7.07h-49.91c-.67-2.85-1.59-5.64-2.75-8.34h61l7.16-7.16h-71.89c-9.18-14.39-25.07-23.1-42.14-23.1h0ZM200,106.78c23.87,0,43.22,19.35,43.22,43.22,0,23.87-19.35,43.22-43.22,43.22-23.87,0-43.22-19.35-43.22-43.22h0c0-23.87,19.35-43.22,43.22-43.22,0,0,0,0,0,0Z"></path>
</svg>
