<?xml version="1.0" encoding="UTF-8"?>
<svg xmlns="http://www.w3.org/2000/svg" id="Layer_1" viewBox="0 0 400 300">
  <defs>
    <style>.cls-1{fill:#100f0f;fill-rule:evenodd;stroke-width:0px;}</style>
  </defs>
  <path class="cls-1" d="M236.51,110.94c21.51,0,39.06,17.55,39.06,39.06,0,8.12-2.5,15.67-6.76,21.93l11.19,14.72h-23.92l-1.53-2.02c-5.4,2.83-11.54,4.43-18.04,4.43-19.8,0-36.23-14.85-38.72-33.99-2.5,19.13-18.93,33.99-38.73,33.99-21.51,0-39.06-17.55-39.06-39.06s17.55-39.06,39.06-39.06c17.22,0,31.9,11.25,37.07,26.77h-24.24c-3.24-3.38-7.79-5.48-12.82-5.48-9.79,0-17.77,7.99-17.77,17.77s7.99,17.77,17.77,17.77c5.35,0,10.16-2.39,13.42-6.14h-11.01v-17.56h36.19c.04.28.09.57.12.86,2.5-19.13,18.93-33.99,38.72-33.99h0ZM229.06,151.09h23.92l1.13,1.48c.12-.85.19-1.7.19-2.58,0-9.79-7.99-17.77-17.77-17.77s-17.77,7.99-17.77,17.77,7.99,17.77,17.77,17.77c1.63,0,3.22-.22,4.73-.64l-12.2-16.03h0Z"></path>
</svg>
