<?xml version="1.0" encoding="UTF-8"?>
<svg xmlns="http://www.w3.org/2000/svg" id="Layer_1" viewBox="0 0 400 300">
  <defs>
    <style>.cls-1{fill:#100f0f;stroke-width:0px;}</style>
  </defs>
  <path class="cls-1" d="M206.75,161.2c-2.8,2.65-6.3,3.85-11,3.85s-8.2-1.2-11.05-3.85c-2.95-2.75-4.75-6.9-4.75-11.15s1.8-8.55,4.75-11.25c2.95-2.7,6.35-3.85,11.3-3.85,4.5,0,8.05,1.25,10.8,3.85,3,2.75,4.75,6.9,4.75,11.2-.05,4.3-1.8,8.45-4.8,11.2h0ZM195.55,139.25c-6.2,0-10.5,4.35-10.5,10.7s4.3,10.7,10.65,10.7,10.65-4.3,10.65-10.65-4.25-10.75-10.8-10.75h0ZM82.45,135.5h-6.75l-9.35,16.5-10-16.5h-6.35v28.95h4.4v-23.1l11.7,19.75,11.45-19.75v23.1h5v-28.95h-.1ZM111.95,151.5c4.3-.85,6.4-3.35,6.4-7.65,0-3.25-1.3-6-3.5-7.15-1.85-1-3.75-1.25-9.15-1.25h-13v28.95h5v-12.4h8.9l7.5,12.4h5.6l-7.75-12.9ZM107.75,147.8h-10.1v-8.1h10.1c2.6,0,3.65.15,4.65.8,1,.6,1.55,1.85,1.55,3.25s-.6,2.65-1.55,3.25c-1,.6-2.15.8-4.65.8ZM169,136.9c-1.7-1.05-3.65-1.45-7.6-1.45h-14.25v28.95h5v-12.3h9.2c4.1,0,5.75-.3,7.55-1.5,2.15-1.4,3.4-3.8,3.4-6.85,0-2.95-1.3-5.55-3.3-6.85h0ZM161.5,147.85h-9.35v-8.15h9.35c2.75,0,3.95.2,5,.85.9.6,1.4,1.75,1.4,3.25-.05,3.05-1.6,4.05-6.4,4.05h0ZM239.65,151.5c4.3-.85,6.4-3.35,6.4-7.6,0-3.25-1.3-6-3.5-7.15-1.85-1-3.75-1.25-9.15-1.25h-13v28.95h4.95v-12.45h8.9l7.5,12.4h5.6l-7.7-12.9h0ZM235.5,147.8h-10.1v-8.1h10.1c2.6,0,3.65.15,4.65.8,1,.6,1.55,1.85,1.55,3.25s-.6,2.65-1.55,3.25c-1,.6-2.15.8-4.65.8h0ZM253.65,135.45v4.25h11v24.7h5v-24.7h11v-4.25h-27ZM294.55,160.15v-8.4h12.7v-4.25h-12.7v-7.8h18.35v-4.25h-23.35v28.95h24.5v-4.25h-19.5ZM342.25,151.5c4.3-.85,6.4-3.35,6.4-7.6,0-3.25-1.3-6-3.5-7.15-1.85-1-3.75-1.25-9.15-1.25h-13v28.95h5v-12.45h8.9l7.5,12.4h5.6l-7.75-12.9h0ZM338.05,147.8h-10.1v-8.1h10.1c2.6,0,3.65.15,4.65.8,1,.6,1.55,1.85,1.55,3.25s-.6,2.65-1.55,3.25c-.95.6-2.15.8-4.65.8Z"></path>
</svg>
