<?xml version="1.0" encoding="UTF-8"?>
<svg xmlns="http://www.w3.org/2000/svg" id="Layer_1" viewBox="0 0 400 300">
  <defs>
    <style>.cls-1{fill:#100f0f;stroke-width:0px;}</style>
  </defs>
  <path class="cls-1" d="M61.48,135.58c-.17-2.39-2.14-3.66-4.33-3.66h-6.94v7.97s3.91,0,3.91,0c.97,0,1.22.78,1.22,1.46v4.66c.08,1.55-3.36,3.49-3.74,3.95.42.46,3.7,2.1,3.7,3.99v5c0,.46-.25,1.17-1.31,1.17h-3.99v7.86h7.11c2.48.17,4.08-1.5,4.37-3.26.25,1.72,1.64,3.35,3.95,3.26h7.27v-7.86h-3.79c-1.01,0-1.51-.7-1.51-1.17v-4.88h1.51c.25,0,.51.29.55.5v2.02h7.23v-13.12h-7.27v2.06c0,.17-.12.35-.28.44-.07.04-.15.06-.23.06h-1.47v-4.6c0-.72.34-1.51,1.22-1.55h8.83c.97.04,1.26.84,1.26,1.55v6.07h8.83v-15.6h-22.16c-1.52.08-3.87,1.26-3.95,3.66Z"></path>
  <path class="cls-1" d="M118.63,157.41v1.53c0,.46-.25,1.18-1.13,1.18h-8.75c-.97,0-1.51-.51-1.51-1.14v-4.91h1.81c.29,0,.5.29.55.51-.04-.21,0,2.06,0,2.06h7.32v-13.08h-7.32v1.93c0,.18-.22.42-.44.49h0s-.06.02-.09.02h-1.77s0-.02,0-.02v-4.49c0-.76.5-1.56,1.51-1.6h8.54c.97.04,1.3.8,1.35,1.56v6.1h8.83v-15.63h-22.29c-1.47.04-3.79,1.35-3.87,3.7-.17-2.35-2.19-3.66-4.37-3.7h-7.06v7.97s4.04,0,4.04,0c1.14.04,1.22.86,1.26,1.54l-.04,4.55v.19c.08,1.55-3.32,3.45-3.74,3.95.42.42,3.7,2.06,3.7,3.95v4.95c0,.38-.51,1.09-1.56,1.09h-3.74v7.86h7.15c2.44.17,4.04-1.5,4.37-3.26.25,1.72,1.64,3.35,3.95,3.26h22.23v-4.86s0-5.71,0-5.71v-4.72s-8.9,0-8.9,0v4.72Z"></path>
  <path class="cls-1" d="M169.6,158.75c0-.45.02-.89.03-1.34h0c.11-3.48.16-6.74-4.95-7.74,2.83-.08,4.88-1.64,6.08-3.68.8-1.36,1.22-2.94,1.24-4.43.04-4.33-2.69-9.8-10.22-9.63h-14.3c-1.52.08-4.16,1.35-4.25,3.7-.13-2.35-1.98-3.66-4.33-3.7h-7.19v7.97h3.99c1.05.05,1.39.89,1.39,1.53v4.57s0,.15,0,.15c.08,1.55-3.36,3.45-3.74,3.95.42.42,3.7,2.06,3.7,3.95v4.95c0,.42-.5,1.14-1.55,1.14h-3.74v7.86h7.11c2.48.16,4.04-1.5,4.37-3.27.25,1.72,1.64,3.35,3.95,3.26h7.3v-4.86s.02-2.99.02-2.99h-3.7c-.92,0-1.64-.72-1.68-1.31v-4.8h4.37c1.85.03,3.36,1.19,3.45,3.21,0,.06,0,.12,0,.18.1,1.97.4,3.99.97,5.72.77,2.31,2.03,4.08,3.98,4.54,1.47.34,2.35.32,3.83.32h7.9v-7.84h-2.56c-.97,0-1.47-.72-1.47-1.39ZM156.63,145.98c-.24.06-.51.09-.8.09h-6.6v-4.21c0-.92.38-1.98,1.72-1.98h4.75c3.76,0,4.03,5.32.92,6.1Z"></path>
  <path class="cls-1" d="M216.07,160.12c-.97,0-1.48-.73-1.48-1.4,0-.43.02-.88.04-1.31.09-3.49.17-6.77-4.95-7.77,2.82-.07,4.86-1.63,6.07-3.66.8-1.36,1.22-2.95,1.23-4.45.06-4.34-2.69-9.79-10.22-9.62h-14.3c-1.51.07-4.15,1.35-4.24,3.7-.13-2.35-1.98-3.66-4.34-3.7h-7.18v7.96l3.98.02c1.05.04,1.38.88,1.38,1.51l.02,4.58v.13c.07,1.57-3.36,3.46-3.76,3.96.43.41,3.7,2.06,3.7,3.94v4.95c0,.43-.5,1.14-1.55,1.14h-3.74v7.87l7.1-.02c2.49.17,4.04-1.5,4.37-3.25.26,1.72,1.64,3.35,3.96,3.25h7.29l.02-4.82v-3.01h-3.7c-.92,0-1.64-.73-1.68-1.31v-4.8l4.37-.02c1.85.06,3.36,1.2,3.46,3.21v.21c.11,1.98.41,4,.99,5.72.77,2.28,2.02,4.06,3.96,4.5,1.48.34,2.35.32,3.83.32h7.91v-7.83h-2.56ZM201.55,145.98c-.22.06-.47.07-.73.07h-6.6v-4.21c0-.92.37-1.98,1.72-1.98h4.77c3.78,0,4.04,5.4.84,6.11Z"></path>
  <path class="cls-1" d="M249.15,157.41v1.53c0,.46-.25,1.18-1.14,1.18h-8.75c-.97,0-1.51-.51-1.51-1.14v-4.91h1.81c.29,0,.5.29.55.51-.04-.21,0,2.06,0,2.06h7.32v-13.08h-7.32v1.93c0,.18-.22.42-.44.49h0s-.06.02-.09.02h-1.77s0-.02,0-.02v-4.49c0-.76.5-1.56,1.51-1.6h8.54c.97.04,1.3.8,1.35,1.56v6.1h8.83v-15.63h-22.29c-1.47.04-3.79,1.35-3.87,3.7-.17-2.35-2.19-3.66-4.37-3.7h-7.06v7.97s4.04,0,4.04,0c1.14.04,1.22.86,1.26,1.54l-.04,4.55v.19c.08,1.55-3.32,3.45-3.74,3.95.42.42,3.7,2.06,3.7,3.95v4.95c0,.38-.51,1.09-1.56,1.09h-3.74v7.86h7.15c2.44.17,4.04-1.5,4.37-3.26.25,1.72,1.64,3.35,3.95,3.26h22.23v-10.57s0-4.72,0-4.72h-8.9v4.72Z"></path>
  <path class="cls-1" d="M302.02,160.12c-.97,0-1.48-.73-1.48-1.4,0-.43.02-.88.04-1.31.09-3.49.17-6.77-4.95-7.77,2.8-.07,4.86-1.63,6.06-3.66.82-1.36,1.23-2.95,1.25-4.45.04-4.34-2.69-9.79-10.22-9.62h-14.3c-1.51.07-4.15,1.35-4.24,3.7-.13-2.35-1.98-3.66-4.34-3.7h-7.18v7.96l3.98.02c1.05.04,1.38.88,1.38,1.51l.02,4.58v.13c.07,1.57-3.36,3.46-3.76,3.96.43.41,3.7,2.06,3.7,3.94v4.95c0,.43-.5,1.14-1.55,1.14h-3.74v7.87h7.1c2.49.17,4.04-1.51,4.37-3.27.26,1.72,1.64,3.35,3.96,3.25h7.29l.02-4.82v-3.01h-3.7c-.92,0-1.64-.73-1.68-1.31v-4.82h4.37c1.85.06,3.36,1.2,3.46,3.21v.21c.11,1.98.41,4,.97,5.72.78,2.28,2.04,4.06,3.98,4.5,1.48.34,2.35.32,3.83.32h7.91v-7.83h-2.56ZM287.5,145.98c-.22.06-.47.07-.73.07h-6.6v-4.21c0-.92.37-1.98,1.72-1.98h4.75c3.79,0,4.04,5.4.86,6.11Z"></path>
  <path class="cls-1" d="M346.17,146.38c0-.13-.01-.27-.02-.4h0c-.47-6.59-4.46-14.94-19.99-14.82-11.64-.04-18.89,5.5-19.7,14.82,0,.08-.02.15-.02.23-.29,1.56-2.69,2.82-3.79,3.62,1.05.84,3.45,1.98,3.79,3.58.05,1.28.23,2.64.62,4h0c.56,1.98,1.53,3.97,3.1,5.71h0c2.94,3.26,7.98,5.69,16.29,5.72,6.98-.05,12.42-2.08,15.82-5.71h0c1.5-1.61,2.6-3.52,3.26-5.72.36-1.2.59-2.48.68-3.84.29-1.55,2.69-2.82,3.79-3.62-1.05-.84-3.49-1.98-3.83-3.57ZM332.59,153.62c.04.74-.38,2.32-1.27,3.8-1.02,1.69-2.68,3.23-5,3.18-2.43-.02-4.16-1.49-5.19-3.19-.76-1.27-1.13-2.67-1.12-3.71,0-2.02,2.82-3.32,3.32-3.7-.38-.34-3.28-1.81-3.28-3.7,0-.09,0-.2,0-.32.16-1.87,2.18-6.69,6.21-6.58,4.13,0,6.16,4.06,6.3,6.58,0,.09,0,.19,0,.28,0,1.98-2.78,3.32-3.28,3.7.34.34,3.24,1.81,3.28,3.66Z"></path>
</svg>
