<svg xmlns="http://www.w3.org/2000/svg" viewBox="0 0 400 300">
  <path d="M123.53,162.85c.73,1.94,1.74,3.6,3.03,4.97,1.29,1.38,2.82,2.43,4.59,3.16,1.77.73,3.69,1.1,5.77,1.1s3.92-.38,5.69-1.14,3.31-1.83,4.63-3.2c1.32-1.38,2.35-3.02,3.08-4.93s1.1-4.04,1.1-6.4v-36.4h8.85v58.99h-8.76v-5.48c-1.97,2.08-4.28,3.68-6.95,4.8-2.67,1.12-5.55,1.69-8.64,1.69s-6.08-.55-8.81-1.64c-2.72-1.1-5.08-2.65-7.08-4.68-1.99-2.02-3.57-4.45-4.72-7.29-1.15-2.84-1.73-6-1.73-9.48v-36.91h8.85v36.4c0,2.36.37,4.51,1.1,6.45Z"></path>
  <path d="M175.52,120v21.49c1.97-1.97,4.24-3.53,6.83-4.68s5.39-1.73,8.43-1.73,6.1.59,8.85,1.77c2.75,1.18,5.14,2.78,7.16,4.8s3.62,4.41,4.8,7.16c1.18,2.75,1.77,5.67,1.77,8.76s-.59,6-1.77,8.72c-1.18,2.72-2.78,5.1-4.8,7.12-2.02,2.02-4.41,3.62-7.16,4.8-2.75,1.18-5.7,1.77-8.85,1.77s-5.86-.58-8.47-1.73c-2.61-1.15-4.9-2.71-6.87-4.68v5.39h-8.43v-58.99h8.51ZM176.49,163.4c.76,1.8,1.81,3.37,3.16,4.72s2.92,2.42,4.72,3.2c1.8.79,3.74,1.18,5.81,1.18s3.93-.39,5.73-1.18,3.36-1.85,4.68-3.2c1.32-1.35,2.37-2.92,3.16-4.72.79-1.8,1.18-3.74,1.18-5.81s-.39-4.03-1.18-5.86c-.79-1.83-1.84-3.41-3.16-4.76-1.32-1.35-2.88-2.4-4.68-3.16s-3.71-1.14-5.73-1.14-3.93.38-5.73,1.14-3.37,1.81-4.72,3.16c-1.35,1.35-2.42,2.94-3.2,4.76-.79,1.83-1.18,3.78-1.18,5.86,0,2.08.38,4.02,1.14,5.81Z"></path>
  <path d="M218.16,148.9c1.12-2.7,2.67-5.07,4.63-7.12s4.3-3.67,6.99-4.85,5.62-1.77,8.76-1.77,5.96.56,8.6,1.69c2.64,1.12,4.92,2.68,6.83,4.68,1.91,1.99,3.4,4.35,4.47,7.08,1.07,2.72,1.6,5.69,1.6,8.89v2.78h-34.97c.28,1.74.84,3.36,1.69,4.85.84,1.49,1.9,2.78,3.16,3.88,1.26,1.1,2.7,1.95,4.3,2.57,1.6.62,3.3.93,5.1.93,5.11,0,9.24-2.11,12.39-6.32l6.15,4.55c-2.13,2.87-4.78,5.11-7.92,6.74-3.15,1.63-6.69,2.44-10.62,2.44-3.2,0-6.19-.56-8.97-1.69s-5.2-2.7-7.25-4.72-3.67-4.4-4.85-7.12-1.77-5.69-1.77-8.89c0-3.03.56-5.9,1.69-8.6ZM230,145.58c-2.39,1.99-3.97,4.65-4.76,7.96h26.21c-.73-3.31-2.29-5.97-4.68-7.96-2.39-1.99-5.18-2.99-8.38-2.99-3.2,0-6,1-8.38,2.99Z"></path>
  <path d="M275.97,146.54c-1.8,1.97-2.7,4.63-2.7,8.01v24.44h-8.51v-42.98h8.43v5.31c1.07-1.74,2.46-3.12,4.17-4.13,1.71-1.01,3.75-1.52,6.11-1.52h2.95v7.92h-3.54c-2.81,0-5.11.98-6.91,2.95Z"></path>
</svg>
