<svg xmlns="http://www.w3.org/2000/svg" viewBox="0 0 400 300">
  <path d="M309.68,138.29l-.31,1.4-2.87.77c-.6.23-1.12.63-1.49,1.16l-13.21,16.71-4.92,16.34c-.27.85.07,1.35.62,1.49l3.45.85-.46,1.4h-17.17l.46-1.4,3.22-.77c.85-.17,1.5-.85,1.63-1.71l4.92-16.55-4.31-16.16c-.19-.77-.43-1.4-1.23-1.63l-2.02-.55.31-1.4h14.65l-.31,1.4-2.48.7c-.89.24-1.08.7-.85,1.49l3.52,13.71,10.4-13.87c.18-.22.28-.49.31-.77-.03-.33-.29-.59-.62-.62l-2.79-.7.39-1.4,11.16.13Z"></path>
  <path d="M275.53,147.45h-1.99l-1.71-5.23c-.13-.81-.89-1.36-1.7-1.23,0,0,0,0,0,0h-4.31l-10.07,33.75c-.27.85,0,1.35.77,1.49l2.79.77-.46,1.4h-16.79l.46-1.4,2.97-.7c1.32-.31,1.59-.7,1.93-1.86l10-33.53h-5.01c-.77.06-1.47.49-1.86,1.16l-3.48,4.96h-1.93l3.13-9.74h1.23c.21.63.82,1.04,1.49,1.01h20.96c.82.12,1.63-.28,2.02-1.01h1.32l.22,10.16ZM244.42,146.94h-1.93l-1.86-5.01c-.21-.63-.82-1.04-1.49-1.01h-8.02l-4.53,15.27h7.56c.77,0,1.23-.39,1.78-1.16l2.09-3.06h1.93l-3.57,12.17h-1.93l.07-4.31c0-.77-.46-1.01-1.23-1.01h-7.43l-5.11,16.87h11.01c1.09.17,2.18-.31,2.79-1.23l4.38-5.47h2.09l-4.46,10.55h-1.4c-.39-.77-.94-1.08-2.33-1.08h-25.25l.46-1.4,2.97-.77c.79-.23,1.37-.9,1.49-1.71l9.68-32.68c.23-.49.03-1.08-.46-1.32l-2.72-.85.39-1.4h21.78c.72.03,1.39-.37,1.71-1.01h1.23l.28,9.61Z"></path>
  <path d="M309.28,127.72c-19.64,4.19-39.67,6.31-59.76,6.31-47.53,0-80.96-6.48-95.07-9.85l-59.46,56.39-4.84.62,17.48-53.21c-5.28,2.12-10.82,3.53-16.47,4.19-1.35.15-1.4-.62-.77-.97,3.73-1.84,6.56-5.09,7.87-9.03,8.57,2.09,15.03.46,22.86-2.41l-15.78,44.76,42.13-45.72c25.44,5.28,51.35,7.99,77.33,8.1,20.5,0,38.47-3.22,47.74-7.01,13.03,7.75,27.9,7.09,36.42,6.55,1.23-.07,1.4,1.08.31,1.32"></path>
  <path d="M217.64,138.29l-.39,1.4-3.3.94c-.61.18-1.06.7-1.16,1.32l-9.68,32.43c-.27.97-.51,1.59.7,1.93l2.33.7-.46,1.4h-15.52l.46-1.4,2.24-.7c1.28-.39,1.66-.85,1.93-1.86l9.61-32.59c.19-.7,0-1.16-.55-1.32l-2.55-.85.39-1.4h15.95ZM194.51,148.22c0,6.09-4.84,11.39-12.72,11.08-1.53-.05-3.05-.29-4.53-.7,0,7.43,2.29,15.03,6.7,15.03,2.72,0,3.52-2.29,3.91-4.22.07-.31.31-.55.7-.15,1.27,1.23,1.97,2.93,1.93,4.69,0,4.58-2.97,6.62-7.25,6.62-11.04,0-11.54-15.89-9.76-25.65.12-.55.31-.62.7-.39,1.6.94,3.45,1.4,5.3,1.32,3.56,0,6.94-2.82,6.94-7.95s-4.25-8.32-10.53-8.32l-10.4,34.91c-.1.27-.15.56-.15.85-.04.42.27.8.69.85,0,0,0,0,0,0l2.97.77-.46,1.4h-15.48l.46-1.4,2.33-.7c.74-.24,1.04-.65,1.4-1.78l10.29-34.89c-4.46.94-6.62,2.6-6.62,5.15-.07.99.2,1.98.77,2.79.15.23.24.5.24.77,0,.58-.51,1.08-1.93,1.08-2.31.16-4.31-1.58-4.47-3.89-.02-.24-.01-.48.01-.71,0-1.93,1.2-8.48,18.26-8.48,14.45,0,20.69,4.69,20.69,11.88"></path>
  <path d="M144.44,145.4l-16,19.71h14.19l1.81-19.71ZM152.7,177.05l-.46,1.4h-14.66l.46-1.4,2.55-.7c.69-.16,1.18-.78,1.16-1.49l.62-6.79h-16.46l-5.38,6.49c-.29.27-.48.62-.55,1.01,0,.34.19.58.62.7l2.48.77-.46,1.4h-12.33l.55-1.4,2.55-.62c.98-.3,1.85-.9,2.48-1.71l33.27-39.13,3.45-.62-3.21,39.91c-.07.85,0,1.4,1.01,1.63l2.29.53Z"></path>
</svg>
