<svg xmlns="http://www.w3.org/2000/svg" viewBox="0 0 400 300">
  <path d="M59.7,130.36s6.97,28.58,8.09,33.22c1.3,5.41,3.64,7.41,10.39,6.06l4.35-17.72c1.1-4.4,1.84-7.54,2.55-12.02h.12c.5,4.52,1.21,7.63,2.12,12.03,0,0,1.77,8.04,2.68,12.27.91,4.22,3.44,6.88,10.05,5.44l10.38-39.28h-8.38l-3.54,16.98c-.95,4.94-1.82,8.81-2.48,13.33h-.12c-.61-4.48-1.38-8.19-2.34-13l-3.69-17.31h-8.73l-3.95,16.87c-1.12,5.13-2.16,9.27-2.83,13.64h-.12c-.68-4.11-1.59-9.32-2.57-14.28,0,0-2.34-12.07-3.17-16.23h-8.82s0,0,0,0ZM139.57,130.36v39.28h7.98v-39.28h-7.98ZM251.91,130.36v28.98c0,4,.75,6.79,2.36,8.5,1.41,1.5,3.72,2.46,6.49,2.46,2.36,0,4.68-.45,5.77-.85l-.1-6.23c-.81.2-1.75.36-3.03.36-2.72,0-3.63-1.74-3.63-5.33v-11.09h6.95v-7.51h-6.95v-9.29h-7.87,0ZM121.74,139.47c-4.96,0-8.89,1.39-11.04,2.63l1.57,5.37c1.96-1.24,5.09-2.26,8.05-2.26,4.9-.01,5.7,2.77,5.7,4.56v.42c-10.68-.02-17.42,3.68-17.42,11.21,0,4.6,3.43,8.91,9.4,8.91,3.67,0,6.75-1.47,8.59-3.81h.18s1.22,5.1,7.94,3.15c-.35-2.12-.47-4.39-.47-7.11v-10.49c0-6.69-2.86-12.57-12.51-12.57h0ZM169.46,139.47c-4.99,0-7.23,2.53-8.59,4.68h-.12v-4.01h-7.61v29.51h8.02v-17.31c0-.81.09-1.67.38-2.42.66-1.74,2.29-3.78,4.87-3.78,3.24,0,4.75,2.74,4.75,6.68v16.82h8.01v-17.51c0-.77.11-1.71.33-2.39.66-1.98,2.41-3.59,4.81-3.59,3.28,0,4.85,2.69,4.85,7.33v16.17h8.02v-17.38c0-9.17-4.65-12.79-9.91-12.79-2.33,0-4.16.58-5.82,1.6-1.4.86-2.64,2.07-3.74,3.68h-.12c-1.27-3.18-4.25-5.28-8.13-5.28h0ZM213.49,139.47c-4.96,0-8.89,1.39-11.04,2.63l1.57,5.37c1.96-1.24,5.09-2.26,8.05-2.26,4.9-.01,5.7,2.77,5.7,4.56v.42c-10.68-.02-17.42,3.68-17.42,11.21,0,4.6,3.43,8.91,9.41,8.91,3.67,0,6.75-1.47,8.58-3.81h.18s1.22,5.1,7.94,3.15c-.35-2.12-.47-4.39-.47-7.11v-10.49c0-6.69-2.86-12.57-12.51-12.57h0ZM246.79,139.47c-3.07,0-6.56,1.98-8.03,6.23h-.22v-5.57h-7.22v29.51h8.23v-15.11c0-.82.05-1.53.18-2.18.61-3.17,3.03-5.19,6.5-5.19.95,0,1.64.1,2.38.21v-7.73c-.62-.13-1.04-.18-1.81-.18h0ZM126.28,155.42v3.68c0,.54-.05,1.11-.2,1.6-.62,2.04-2.74,3.77-5.38,3.77-2.21,0-3.96-1.25-3.96-3.9,0-4.05,4.46-5.17,9.54-5.15h0ZM218.03,155.42v3.68c0,.54-.05,1.11-.2,1.6-.62,2.04-2.73,3.77-5.38,3.77-2.21,0-3.96-1.25-3.96-3.9,0-4.05,4.46-5.17,9.54-5.15h0Z"></path>
  <path d="M309.84,116.16c-2.57,0-4.62,1.44-4.62,3.19l1.56,17.71c.17,1.07,1.48,1.89,3.06,1.89,1.58,0,2.89-.82,3.06-1.89l1.57-17.71c0-1.75-2.05-3.19-4.63-3.19h0ZM284.36,130.36c-1.34.03-2.86,1.04-3.82,2.72-1.29,2.23-1.06,4.72.45,5.6l16.12,7.5c1.01.37,2.37-.34,3.17-1.71,0,0,0,0,0,0,.8-1.37.73-2.91-.1-3.6l-14.55-10.21c-.38-.22-.8-.32-1.25-.31h0ZM335.33,130.36c-.45-.01-.87.09-1.25.31l-14.56,10.21c-.83.68-.89,2.23-.1,3.6h0c.79,1.37,2.16,2.08,3.16,1.71l16.12-7.5c1.52-.87,1.74-3.37.45-5.6-.97-1.67-2.49-2.69-3.83-2.72h0ZM297.7,153.72c-.21,0-.41.03-.6.1l-16.12,7.5c-1.51.88-1.74,3.37-.45,5.6,1.29,2.23,3.56,3.28,5.07,2.41l14.56-10.2c.84-.69.9-2.23.1-3.6h0c-.64-1.11-1.67-1.79-2.57-1.81h0ZM321.99,153.72c-.9.01-1.93.69-2.57,1.81h0c-.79,1.37-.73,2.91.1,3.6l14.56,10.2c1.51.87,3.78-.19,5.08-2.41,1.28-2.23,1.07-4.73-.45-5.6l-16.12-7.5c-.19-.07-.39-.1-.6-.1h0ZM309.84,161.06c-1.58,0-2.88.82-3.05,1.89l-1.56,17.71c0,1.75,2.05,3.19,4.62,3.19s4.63-1.44,4.63-3.19l-1.57-17.71c-.18-1.06-1.48-1.88-3.06-1.89h0,0Z"></path>
</svg>
