<?xml version="1.0" encoding="UTF-8"?>
<svg xmlns="http://www.w3.org/2000/svg" viewBox="0 0 400 300">
<defs>
<mask x="140" y="116.47" width="57.33" height="67.46" maskUnits="userSpaceOnUse"><g><path d="M140,116.47v67.45h57.33v-67.44h-57.33Z"/></g></mask><mask x="230.41" y="116.47" width="29.59" height="67.45" maskUnits="userSpaceOnUse"><g><path d="M245.21,183.91h14.79v-67.44h-29.59v67.44h14.79Z"/></g></mask></defs><g><path d="M144.77,125.42c-1.27-5.75-1.56-6.72-3.41-7.2l-1.36-.39v-1.36h17.23v1.36l-1.46.29c-3.11.68-2.81,3.8-1.94,7.98l7.69,38.15,5.65-30.37-2.05-10.41c-.78-3.7-1.07-4.86-3.02-5.35l-1.26-.29v-1.36h17.81v1.36l-2.14.39c-3.21.58-2.72,4.09-1.95,7.88l7.4,38.15,7.3-36.11c1.36-7.5.68-9.35-2.24-9.93l-2.04-.39v-1.36h12.36v1.36l-1.36.49c-1.95.68-2.43,2.53-3.79,8.95l-11.87,56.64h-2.53l-9.15-44.18-8.28,44.19h-3.21l-12.36-58.5h0Z"/></g><path d="M213.09,183.91c-5.64,0-7.59-3.89-9.44-3.89-1.07,0-2.33.29-3.31,3.5h-1.17v-22.19h1.46c1.17,12.56,5.84,20.44,12.36,20.44,4.38,0,7.4-3.99,7.4-11.2,0-15.18-21.7-21.7-21.7-38.54,0-9.05,4.57-15.97,12.84-15.97,5.35,0,6.42,3.5,8.66,3.5,1.26,0,2.14-.97,2.63-3.11h1.17v22.19h-1.46c-1.17-11.2-4.09-20.44-11.1-20.44-4.87,0-5.74,4.87-5.74,8.18,0,14.5,21.7,19.46,21.7,39.71,0,10.32-5.65,17.81-14.31,17.81"/>
<g>
<path d="M255.23,168.05c0,10.41-5.25,15.87-13.33,15.87-7.3,0-11.58-5.93-11.49-12.45.1-5.07,3.8-7.59,6.82-7.2,2.14.29,4.28,1.85,3.99,5.25-.29,4.87-5.55,4.67-5.75,7.69-.19,1.85,2.24,4.57,5.35,4.57,5.45,0,5.45-6.91,5.45-12.17v-47.2c0-2.73-.88-3.5-3.02-3.99l-2.43-.59v-1.36h19.17v1.36l-2.14.58c-1.95.48-2.63,1.36-2.63,4.09v45.55Z"/>
</g>
</svg>